<svg xmlns="http://www.w3.org/2000/svg" viewBox="0 0 360 1509.23"><g id="レイヤー_2" data-name="レイヤー 2"><g id="レイヤー_1-2" data-name="レイヤー 1"><path d="M171.07,1025.16l.91-1.58-1.1-1.18,1.1-1.8-.83-1,.92-1.12-1.92-.7c1.82-1,2.66-3.28,5.31-3.67l-.48,0,.38,2,.65-.09a3.61,3.61,0,0,0-.55-1.9,5.94,5.94,0,0,1,1.55-1.54l-.93-1,5-1.77v-1.7l1.5.85c.46-.26,1-.56,2.71-.28.53-.18.33-.56.19-.54a8.7,8.7,0,0,0-1.4.43c.6.17,1.2.34,1.21.11-1-2.21.26-1.32,1-1.58l2.61,3v1.58l-6.51,3.23-.94-.85-4.39,1.45v2c.21.17.45.53.69.53,2.21,0,4.49.39,6.54-.93,0,0,.49.62.8,1l-.14-.15-.82.7.32.31a5.49,5.49,0,0,0,.64-.86c3.69.24,7.23-1.05,10.51-2.31,6.25-2.39,12.31-5.17,19.06-5.9.39,0,.73-.58.63-.5l7,.87-2.78,2.77-3.06-1.09-1.56,2.4c-1.38-1.79-2.36,0-3.43-.27s-2.05-.37-3.39-.61l-1.07,1.6c-.82,0-2.09-.34-2.37.05-1.64,2.25-4.54,1.85-7.08,3.75l4.45.2c-1,2.08-3.71.14-4.83,2-3.39-.82-5.88,1.86-9,2.33a36.23,36.23,0,0,0-4.87,1.45l-1-2-5.91,3-2.76-1.48Zm3-5.34v-.33h-1v.33Zm2,4v-.33h-1v.33ZM322.46,598.26l2.18-.83,2.45,1.81,2.29-1.66-4.24-9.38-3.24,1.23c.58-1.95,1-3.26,1.19-4l-1.52-2.51-3,4.52c-.79-1.22-1.46-2.24-2.34-3.61l-11.32,5.71,2,5.54c.7-1.36,1.13-2.18,1.63-3.14.79,1.76,1.36,3,1.95,4.3l1.43-1.43c.14-1.61.27-3.15.4-4.69l.79-.21,2.15,4.26,1.61-1c.12,1.05.21,1.84.25,2.24Zm5.61-29.1-3.74-4-.41,1.84c-1.86-.73-3.94-1.69-5.34.1-.61,2.62-1.13,4.87-1.66,7.12l-.64-.05c-.11-1.53-.22-3.07-.34-4.61l-4.15-1.39-5.12,3.25c-1.26-2-.62-3.6.4-5.23.49,0,1.2.21,1.45,0,2-2,4.53-2.11,7-1.94l2-2h2.34c3.07-1.13,1.69-3.42,2.37-4.82,4.45.53,3.88,5.45,6.87,7.22C327.38,565.85,328.31,567.63,328.07,569.16Zm-19-1.34v-.33h-1v.33ZM239.43,392a19.13,19.13,0,0,0-5.11-2.68c.25.53.71,1.07.68,1.58s-.6.84-.93,1.27c.72,1.77,1.56,1,2.37.13l3.51,2.49-.79.78,1.09,1.85L238.79,399l3.34,1.29,4.91,5.54c.16,3.43.34,3.83,3,6.42l3.45-1.86,2.37.8.33-.6-2.28-1.68,1.49-1.65h-3.62l-2.47-3.79c1.52-1.33-.18-2.38-.63-3-1-1.45-.3-2.88-.58-4.26C244.35,396.52,242.18,393.65,239.43,392ZM345.48,645.06l-.32-.31.82-.7.14.15a15.71,15.71,0,0,1,.87-1.62c-1.75-1.65-3.78-4-2.47-6.58.85,1.78,1.05,1.9,2.37,1.72l-1.2-2.43c-1.57-.14-3.3-.08-3.62-2.28.36-.66.74-1.33,1.25-2.24l-3.15-2.2c-.11-1.33-.22-2.85-.34-4.37h-.76c0,3.1,0,6.2,0,9.3a10.37,10.37,0,0,0,.87,4.62c.63,1.32.13,3.18.13,4.59l2.18,2.1v2.31l2.21-1.25L343.24,649l1.39.28c.78,1.57,1.54,3.26,2.46,4.84a6.49,6.49,0,0,1,1,4.08h1c-.13-2,.5-4-.58-5.43.32-.93.51-1.5.74-2.16l-1.9-.65c-.3-1.15-.61-2.29-.95-3.57.67-.65,1.44-1.48-.26-2.15A5.49,5.49,0,0,1,345.48,645.06Zm-35.69-14.13,2.1-2.09c.08-1.34.78-2.81-.63-4,.81-1.24,1.71-2.48-.38-3.29,1-1.63,1.17-3.55,3.19-3.93-1.58-3.87-.94-3.42,1.61-13.91.6,3.66,1.13,6.92,1.75,10.72l5,1.26c-3.38.67-5.11,3.11-7.35,5.38l2.79.14v4.48L315.45,627l-1.25-1v4.51c-.52.52-.88.87-1.29,1.29Zm5.69-7.49c-.32,1.51-.32,1.51,2.11,1.32Zm28.07-47.22c.69,2.8,1.2,4.9,1.76,7.21l1.56-1.6c1.07-6.45-1-12.16-3.81-17.7-.78-1.53-1.71-3-3.84-3l3.22,3.13C340.11,569.4,340.7,572.84,343.55,576.22ZM137.11,89.1c-1-1.16-1.94-2.38-3.51-4.4,1.45.64,2.25.76,2.68,1.22a30.85,30.85,0,0,0,9,6.39l1.8-1.57V85.35l1.61-.24,1.86,5c3.18-3.23,3.38-3.66,3.51-7.57l-3.8-1.72c.09-.21.16-.62.3-.64,2.75-.45,4.45-2.41,6.37-4.47v-5l-1.79-3.39,1.8-1.33,1.56.83a13.73,13.73,0,0,0,1.95-2.66c.76-1.71,2.47-.58,3.69-1.54C165.65,60,167.82,57.32,167,54c1.53-2.45,2.12-5.16,4.36-6.59,1.9-1.21,4.17-1.9,5.26-4.45l2,3a19.83,19.83,0,0,1,9.09-8c3.4-1.42,6.89-2.68,10.27-4.17a21.72,21.72,0,0,1,5.79-1.75,25.22,25.22,0,0,0,8.47-2.45c2-1.05,3.92-2.65,6.43-2.54,3.18-2.56,7.62-3,10.4-6.32a8.39,8.39,0,0,1,2.81-1.6c1-.47,2.32-.57,2.92-1.31,2.9-3.62,7-5.5,10.83-7.71C248,8.77,250.37,6.8,253,6.37c2.19-.37,3.1-2.72,5.66-2.38,1.8.25,3.78-1.17,5.74-1.58,2.63-.55,5.32-.84,8-1.26,1.39-.21,2.7,0,4.2-.74,2.36-1.15,5,.41,7.3,1.18,4.35,1.46,8.36,4,12.72,5.43,3.7,1.25,5.95,4.59,9.59,5.84.84.28,1.28,1.72,1.92,2.62a15.72,15.72,0,0,1,3,10.76,15,15,0,0,1-5.92,6.52c-2.63,1.71-5.3,3.52-7.92,5.18-2.39,1.51-3.11,3.56-3.86,5.59-.91,2.48-.95,5.28-1.38,8,3,3.18,7.22,6,3.72,11.53l-1.19-.88-1.9,2,3.3,2.21c-3.35.74-4.15,2.9-5,5.32l2,4.18c-2.08,7.32-7.91,11.48-12.67,16.53-1.12,2.35,1.49,3.58,2.75,5.15.09.09.06.32,0,.48a2.47,2.47,0,0,0,1,2.57c-1.85.91.4,1.8,0,2.67a14.15,14.15,0,0,1-1,1.58l1.79.37c.19,1.46.73,3-.78,4.32l1.13,1.26L282,117.29c2.55,2.29,2.24,6.09,4,9,.38.62,0,1.92-.4,2.75-1.69,3.64-2.75,7.4-2.55,10.68l2.52,4.94,5.13-5.13c-.24-.89-.51-1.92-.78-2.93l4.76-1.54.61,1.77,3.67.95,1-2c1.43.4,2.3.68,3.19.89,1.86.42,3.78,1.18,5.41-.59,6.4.71,11.85-2.84,17.83-4a11.34,11.34,0,0,1,2,0l1.76-2.83H341L352,136v5.89l3.42,2.76c-.57.9-1,1.54-1.41,2.24,2.17,4.3,1.24,8-2.35,11.11-2.13.12-4.66-.44-6.26.53-2,1.19-4.45-.64-5.87,1.59-1.71-.29-3.69.84-5-1l-4.27,1.4v1.31c-2,1.86-3.36,3.58-5.11,4.58-1.56.9-2.38,2.58-4.47,3.37l4,.78-2.58.91.57.77c-.71,2.3-1.39,4.47-2.11,6.79H318c-3.48,2.79-6,3.41-8.47,2.13l-1.77,1.76c-.12,0-.28.13-.35.08-1.61-1.08-3.21.16-4.71.33-1.83.2-3.5,1.75-5.8,3,.39-1.21.64-2,1-3.06l-2.72-1.5c-2.1,2.1-5.22,2.74-6,6.23a14.55,14.55,0,0,0,1.88-.45c1.37-.51,1.36-.53,3.41.53l1.18-1c.13.51.49,1.19.32,1.37-.92,1-2,1.81-3,2.71-.33.33-.67.66-1,1-5,2.09-10,4.3-15.51,4l-1.65-1.65,2.94-.77-.85-1.07-1.91-.94,1-1.06c-.32-.34-.64-.7-1.17-1.28.76-1.08,1.57-2.2,2.49-3.5l-1.29-.72c-.33-.34-.67-.67-1-1v-1c1-1,2.06-1.95,2.95-3a.79.79,0,0,0,.14.15l.82-.7-.32-.31a5.49,5.49,0,0,0-.64.86c-1.22,1.44-2.65,2.69-3.95,4h-1.55l-1-2.27-2,1.17c-.14-.27-.44-.58-.39-.81.67-2.85.75-6.05,4.37-7.13a2.5,2.5,0,0,0,1.41-1.32c1-2.56,3-3.92,5.21-5.24a59.28,59.28,0,0,0,5.69-4.29c.19.54.4,1.11.75,2.1l1.55-1.21c.33-.34.66-.67,1-1h1.48c.86-1.64,1.73-3.28,2.43-4.6l5.62-1.27,1.21,3.54c-.09,0-.37.33-.63.3a8.65,8.65,0,0,0-7.7,3.06,27.79,27.79,0,0,1-3.41,2.7v2.27c-2,2.15-2.83,2.28-4.59,5.23.21.52.58.31.56.17a7.83,7.83,0,0,0-.44-1.4c-.17.6-.34,1.2-.12,1.23.92-1.23,1.26-1.23,1.59-1.23l.33.82.67-.82c.33-.34.67-.67,1-1l.83-.33-.83-.67v-1c.33-.34.67-.67,1-1l1,1.26,4.74-4.74,3,1.21,6.71-4.71,1.26,1.15,2-1.17,1.88,3.07,2.16-1,3.92,1.21c.17-1.52.31-2.76.45-4l1.73-.67a33.14,33.14,0,0,1-2.52-4.87c-.82-2.47-2.63-3.33-4.88-3.8a25.63,25.63,0,0,0-9-1c-1.57-2-3.58-2.5-6.34-2.41l-1.5-1.4h-2.8l1.36,1.61-4.09,1.65-5.83,7.47h-2c-1.19,1.27-3.06,2.49-3.79,4.2-1.4,3.32-4,5.36-7,7.69l1.47,1.19-1.43,2.12-1-2.1L265.08,176c.42,1.17.84,2.32,1.32,3.64-3.4,1.55-5.2,4.21-6.66,7.4l-2.9.19a9,9,0,0,1-.81,1.4,15.48,15.48,0,0,1-1.52,1.56L252.9,188l-6.77,4.29v2.57l1.82.67-1.08,1.8c1.13,1.2,2.35,2.49,3.75,4l2-2.83-1.72-.83,5.18-4.47,1,3.43-2.93,2.13.8.85-.9,1.59-1,.58c.12.51.08,1,.27,1.1,3.89,2.61,7.84,5.16,11.73,7.79,1.44,1,3.16,1.84,4.1,3.21,1.84,2.67,4.61,4.26,6.81,6.5,1.36,1.37,3.44,3.11,5.79.82.47.68.91,1.34,1.4,2l-.14-.15-.82.7.32.31a5.49,5.49,0,0,0,.64-.86c.11,0,.39-.11.43,0a17.86,17.86,0,0,0,8.34,7.67l1.13-1,5.74,4.09c.18-.15.54-.48,1-.88a13.33,13.33,0,0,1,2.94,1.27c.73.55,1.15,1.51,2.27,3.07v4.12l1.59,1.59.87-.77a45.13,45.13,0,0,0,4.36,2.58c2.11,2.23,3.33,4,5,5.14,1.48,1,3.56,1.14,4.52,3.35-1.14,1.15-3.64,1.07-3.22,3.75l-3.5-1.75-3.88,2.72h5.69l-4.59,3.54,2.07.72v3.05l-3.76-1.72c.17,1.61.29,2.75.46,4.29.26-.24.06.1-.15.11A23.66,23.66,0,0,1,298,265.61a13.81,13.81,0,0,0-3.59-.68c-2.63-2.21-4.83-6.39-10.08-3.93-.12-1.07-.25-2.29-.38-3.5l-8.17-3.38-1.08.9c-.7-1.42-1.43-2.9-2.26-4.6l1.47-.5c.12-.73.26-1.65.53-3.4.46,1.17.63,1.62,1,2.45a6,6,0,0,1,1.59-.78,15.51,15.51,0,0,1,2.56,0l2.09,2,1-1,1.48,2-1.88,1.1-3.92-2c-.09.49-.17,1-.27,1.47,1.31.58,2.56,1.19,3.85,1.68a5.72,5.72,0,0,0,2.67.68c2.07-.32,4.06-2.05,6.13,0,1.43-1.77,2.7-.49,4.23,0,1.25.38,2.8-.32,4.23-.39a25,25,0,0,1,3.39.32c-2-4.28-5.65-5.22-8.75-7.09l-6.8,3.28c-2.67-2.62-2.9-3.2-2.08-5.38-.66-2.23-3.82-2.15-4.28-4.65-.39.39-.62.63-.75.75l-3.7-3.72h2.93c.36,1.17,1,2.18,2.36,2,2.19-.37,3.44,1.36,5.55,1.84-.15-.57-.12-1.41-.52-1.83-1-1.1-2.43-1.88-3.34-3s-2.31-1.3-3.44-2c-2.3-1.35-4.75-2.62-5.86-5.6l-12.61-6.32v-4l-6.64-2.46c-.3.91-.5,1.49-.78,2.32L250.07,216v-2.81a6.29,6.29,0,0,0,1-.06l-.15.15.7.81.32-.31a6.16,6.16,0,0,0-.87-.65,4.22,4.22,0,0,1-.37-.77l-.67.83-5.71-3.62c-1.42,1.83-3.08-.08-5-.62-.13-.64-.3-1.55-.53-2.77l-6.24-3.3c-.85,1.94-.89,3.5.31,4.79-.35,1.8-.67,3.46-1.09,5.57l5.43-.38,3.68,3.09c.31-.44.87-1.22,1.92-2.67.14,1.67.21,2.44.29,3.28L240.47,218l-1.18-.93c-.11.7-.18,1.15-.25,1.56,1.56,1.32,2.7,0,3.88-.46,1.09.33,2.12.66,3.19.92l-.15.15.7.81.32-.31a6.16,6.16,0,0,0-.87-.65,20.86,20.86,0,0,1-1.14-1.82c2.88-.19,4.38,1.69,6.06,3.33l-1.13,1.26,5.67,4.27c2-.41,3.9-1.42,4.73-.85,2.36,1.62,5.87.74,8.23,4.15l-9.1-2.86c1.55,2,1.39,1.47,1.68,3.38h-6.67c-1.63-1.56-3.47-3.28-6.59-2.62l1.2,1.34c-.12.12-.29.36-.35.33-4.37-1.81-8.72-3.65-14.17-5.94-5.18-.95-11,4.59-16.6,5.26-1.62.14-3.1,2-4.64,3.1l-1.43,1.07c.82-3.91,4-5,5.51-7.32,1.58-2.54,3.84-4.33,5.84-6.8h-4.9c-.81.44-1.36,2.31-3.24,1.78-.58-2-2.2-.55-3.4-1.08l-2.22,2.66c-6.53,1.68-11.12,4.65-14.73,9.72l3.16,1.68,3.19-1a7.6,7.6,0,0,0,.05,1l-.14-.15-.82.7.32.31a5.49,5.49,0,0,0,.64-.86c.62,0,1.28,0,1.95,0,0,2.73-2.79,4.13-4,6.31a7.11,7.11,0,0,1-5.88,3.71,3,3,0,0,0-1.24.6c-4.46,2.77-9.23,4.22-14.4,3.25-.91,1.94-2.43,3.66-2.32,5.28.19,2.86-2.91,2.42-3.57,4.52-.53,1.69-2.65,2.88-3.78,4-4.4,0-8.51,0-12.63,0-.23,0-.47-.41-.27-.23-1.41.2-2.91.85-3.41.4-1.57-1.42-3.55-2-5.2-3.17-1.37-.95-2.22-2.66-3-3.61-.56-3.18-1-5.84-1.39-7.95l-4.21-5.12,1.18-1.47-3.34-1.25c-1.47-2.36.64-5-1.59-6.83,1.68-4.9,1.7-10.71,7.68-13.8.19,1.2.33,2.09.45,2.81l3.66,2.53c1.16-5.24,4.69-9.12,7.94-13.14s8.08-5,13.07-4.82c1.86-2.87,1.72-6.34,2.83-9.77-3.12-3-2.67-7.43-2.58-11.79l1.44-1.37,1.2,2.29-.95,3.17c2.34.06,2.11,2.76,3.93,3.31,1.48-2.15-2.47-4.52.08-6.35a35.25,35.25,0,0,1-.68-4.8c0-.86,1-1.78.86-2.57a29.08,29.08,0,0,0-1.72-4.75l-2.73,3.83c-.2-.61-.56-1.11-.44-1.41,1.64-4.1,1-8.4.86-12.58-.08-2.06-1.32-4.07-2.14-6.39-5.46,2-11,.81-16.63,1.29-.07.89-.14,1.67-.22,2.72-2.73.52-5.66-.21-8.43,1-1.29.59-2.82-1-4.53-1s-3.26-.88-4.9-1.38l1.14-1.24c-1.06-1.63-2.17-3.32-3.29-5-2.26.6-4.42,1.31-6.62,1.7-1.71.3-3.46-.18-5.15.94-.66.45-2.12-.2-3.18-.47-3.48-.9-6.84-2.1-10.47-2.58-2-.27-4-1-5.16-.85a19.87,19.87,0,0,0-9.14,6.42c-.48,3.38-1,6.71-1.35,9.45A37.9,37.9,0,0,1,93.25,179c.76,4.59.18,9.55,3.27,13.94l5.37,1.58L104.2,197c-.25,1.13-.59,2.64-1,4.61,1.65,1.89,2.15,5.3,5.54,6.76.47-5,1.16-9.58,1.26-14.22.07-3.35.29-6.67-.71-10.13-.94-3.22-.2-6.93-.2-10.35,1.33-1.25,1.23-4,4-3.54-.33,3,2.19,2.86,4.14,3.35l-1.11,1.12,2.26,1.24,2.71-.71c-.47.63-1,1.84-1.41,1.81-2.62-.18-4.1,2.3-6.69,2.31.39,2.78.79,5.27,1.08,7.78s-.66,4.91.71,6.68c-.26,1.9-.6,3.43-.67,5-.13,3-.18,2.93-2.76,6.78a20.15,20.15,0,0,0-1.79,4.64,18.16,18.16,0,0,0,1.81,7.24l-3.28,3.29v2.08l1.8.69.42,2.64,1.61-.84V232l-4.85,7.46c-.15,3,1,7.11-2.55,9.77-.55,3.17-1.07,6.09-1.57,8.93h-1.7c-.39-2.35.32-5.12-2-7.36l-1.11,1.38H96.53c-.54,1.08-1.08,2.19-1.6,3.24.87,2.15,1.67,4.15,2.58,6.41-4.56-.93-6.14-4.52-8.49-7.38V251.6l-2.62-1.33-.69,2c-2.29-1.2-3.87-1.26-6.54-1.1.32-1.81.74-3.43.86-5.08.15-1.89,2.06-3.77.83-5.47s-.45-3.5-.79-5.2c-.37-1.87.54-3.79-.79-5.7-.91-1.32-.92-3.27-1.41-5.28a14.32,14.32,0,0,1-5.58-7.78c-1-3.22-3.41-6.58-2-10,1.26-3.1.15-6.67,2.33-9.26.87,2.13,1.79,4.42,3,7.42.57-3.42.85-6.17,1.5-8.84.75-3.05.49-6.27,1.81-9.24.43-1,0-2.29.16-3.44.26-2.7-.64-5.47.89-8.14a4.42,4.42,0,0,0-.3-3.77c-3.53-5.75-3.69-12.09-3.61-18.51,0-4,0-8,0-12a31.9,31.9,0,0,0-1.9-12.22c-.56-1.44-.09-3.29-.49-4.82l-3.54-10.17c.36-3.2-1.08-7.66,1.12-12.06a8.84,8.84,0,0,1-1.16-1.93c-.59-2-1.64-3.76-.21-6.25s1.56-5.68,2.16-8.58c1.18-5.77-1.88-10.44-4.15-15.27a9.11,9.11,0,0,1-.86-6.5,14.21,14.21,0,0,0,0-2.44l2.85-1.46a23.15,23.15,0,0,0,9-1.09l3.69,2A33.7,33.7,0,0,1,84,64.77c.22,1.64-.11,3.35.08,5,.32,2.7,1.11,5.29,1.05,8.09a41,41,0,0,0,1,7.58c.09.55.67,1,.91,1.37-1.23,4.42-1.6,9-5.32,12.27A5.72,5.72,0,0,1,80.43,97l-3.9,2c2.3,0,3.92,0,5.17.08a63.53,63.53,0,0,1,4.37,4.85c-.48,1.63.23,3.56-.73,5.77a7.67,7.67,0,0,0,.74,7.45c.93,1.26.89,2.65,1,4.09.33,3.65.86,7.28,1.31,10.93.44,0,.89.14,1.08,0,3.31-2.9,6.53-5.89,9.88-8.75,2.08-1.78,3.88-3.84,6.13-5.52,1.85-1.39,2.83-4,5.35-5.12.61-.27.76-1.6,1.18-2.61-1.18-2-1.92-4.59-4.33-6-.4-.24-.42-1.08-.65-1.63-1.12-2.72-2-5.44-3.84-8-2.13-2.9-4.5-6.07-4.44-10.12,0-.36-.53-.73-.9-1.21l4.19-7.28a4.91,4.91,0,0,0,0-1A20.84,20.84,0,0,1,104.64,63c.94-1.71,1.52-3.68,2.33-5.52s.82-4,1.08-6c.31-2.35.5-4.72.85-8.24-.16-1.12-2-1.53-3.51-.9-3.51,1.49-7.09.58-10.61.93-1.21.11-2.4.46-4.06.79l-3.67-1.33-1.92-2c-.06-5.78.32-6.43,4.94-8.12,0-.17.07-.39,0-.49-.94-1.13-1.9-2.24-2.87-3.36l2.06-3.36c2.79-.32,5.4,0,8.41-.12L99.13,27h5.06c5-2.39,9.83-4.49,14.41-7,1.46-.81,4.28-.78,3.49-3.77h3.64l9-5a16.89,16.89,0,0,0,8.47-1.56c2-.94,4.3-.56,6.45-1.28,4-1.92,8.41-1.37,12.41.32,5.74,2.23,11.49,4.44,17.29,6.5a11.63,11.63,0,0,1,7.73,8.93c.16.73.79,1.36.94,2.09a11.56,11.56,0,0,1,0,2.42c-2.75,3.51-6.44,4.87-10.68,5.68A21.2,21.2,0,0,0,165.66,41l-3.39.48,3.28,1.16-2.4,1.09-.57-.5c-1.78,1.22-2.72,3.37-5.31,4.18l-2.86,6.86-1.34-2.46c-.61.6-.91.76-1,1a12.19,12.19,0,0,1-2.94,4.8c-3.44,3.85-6.58,8-10.09,11.79a4.58,4.58,0,0,1-1.05.73,12.75,12.75,0,0,0-5.67,6.38c-1,2.78-2.87,4.56-4.68,6.58a30.57,30.57,0,0,0-3.16,4.18c-.39.62-.6,2.11-.38,2.22,2,1.07.14,2.43.39,3.58s.54,2.46.92,4.21l3.23,1.23c.2-.84.47-1.33.38-1.73-.26-1-.68-2-1.15-3.41l4.18,1.08,6.57,7.79.69-2.1c.5,0,1.12,0,2.13,0l-.48,0c.13.65.26,1.31.38,2L142,102a3.61,3.61,0,0,0-.55-1.9c.12-1.69-1.06-3-1.5-4.49a22.26,22.26,0,0,0-2.38-4.31l-2.16-.87c.83-.66,1.24-1,1.69-1.37l-.15.15.7.81.32-.31A6.16,6.16,0,0,0,137.11,89.1Zm89,18.06a3.38,3.38,0,0,0-1,1.8l0-.92-2.94.39,0,.67a4.24,4.24,0,0,0,2.91-.94,4.89,4.89,0,0,0,.89-1.09l.2.19.82-.7-.32-.31A2.86,2.86,0,0,0,226.07,107.16ZM170,130.26l.19-.19-.69-.82-.32.31a1.54,1.54,0,0,0,1,.49l-.2.2.7.81.32-.31A1.62,1.62,0,0,0,170,130.26Zm77.09,54.9c.44,1.81,1.88,1.2,2.66.73a56.3,56.3,0,0,0,4.91-3.54c1.43-5.76,5.61-8.58,8.85-12.17l.84.74c5.27-5.53,12.07-9.61,15.32-16.85a28,28,0,0,1,4.14-7l-5.69,1.44v1.82l-5.6,6.85c-2.37-1.06-4.92,3.06-7.39,0-5.69,3.31-10.61-.93-16.22.56-2.45.64-5.11.52-7.67.81a1.78,1.78,0,0,0-.82.52l-5.22-1.32,1.09-2-.8.45c-.25-.74-.51-1.48-.9-2.62l-1,3.06-4.22-2.21-.77.61-1.22-.94-1.41,2.55,2,.89-10.46,4.15a3.65,3.65,0,0,1-2.31.45c-1-.06-1.88.75-2.61.85-2.51.35-5.24.69-7.29-1.5.28-.37.5-.68.91-1.24h-2.85l-3.48,5.11c1.13,2.59,2.11,5.14.23,7.72a1.07,1.07,0,0,0,0,1c1.76,2.7.63,5.73.93,7.88-1.35,3.1-2.45,5.63-3.64,8.38-.23-1.14-.43-2.14-.75-3.75-.43,1.21-.63,1.79-.84,2.36-3-2.64-3.57-3.64-3.83-6.81l-3.11-3.59c-2.2-.55-3.86-1-5.55-1.34-.38-.08-.85.24-1,.3V180l1.7.46-1.39,2.72-2.28,0,.87,0-.39-2-.64.09a2.2,2.2,0,0,0,.94,1.89c.18,3.53,0,7,.81,10.61.77,3.35,0,7,2,10.09.59.76,1.19,1.51,1.67,2.11h4.37c.16-.63.28-1.08.42-1.62l2.43-.38,1.69-3.62-3.26-3,2.75-.4c.14-1.37.26-2.57.38-3.77l.55,0v2.88c2,3.55,5.51,4,8.3,4.85,3.85,1.12,7.45-1.74,10.78-2.68l3.32,1.07c1.71-2,1.71-2,1.66-5l-1.69-.35a10.3,10.3,0,0,0-.18-2.14,16.05,16.05,0,0,0-1.07-2.31l.65-.38,2.89,3.95.71-.33c-.25-1.46-.5-2.92-.73-4.24,1.35-.82,3.45-1.38,4.11-2.66,1-2,2.75-2.19,3.8-2.78.88-1.29,1.5-2.18,2-3,4.67.39,9.29-3,13.57.52C243,183.42,244.26,185,247.07,185.16ZM215.12,38.25c-2.34,1.67-3.9,3.17-5.75,4a78.08,78.08,0,0,1-14.44,4.85c-2.51.61-2.7.71-2.5,4.05l8.07-4c4.38,2.3,5.79,7.9,5.56,12.38-3.08,4-2.56,9.15-5,13.18a2.52,2.52,0,0,0,0,1.47,4,4,0,0,0,.48,1l3.58-3.93c2.16-.48,3.69.15,5.34-.87,1.21-.75,3.21-.13,4.83-.34s3.43.53,5.22-.69c.89-.61,2.83.34,4.48.62v-5.8c2.63-4.6,6.82-6.17,10.65-7.93,1.82-.83,3.82-1.26,5.61-2.79-.32-1.43-.67-3-1.1-4.81.57-1.9,3.84-4,.3-6.58h-14l-6-2.33c-.69-1.06-1.19-1.84-1.44-2.24ZM199.48,139.16a37.25,37.25,0,0,1,5.59.05c1.76.3,3-1.23,4.57-1,5.41.69,10.6-1.69,15.64-1l3.16-1.81-1.23-1.62a10.67,10.67,0,0,1,1.32-2.46,17.58,17.58,0,0,1,2.88-2.06c-1-2.26-2.11-4.54-3.13-6.75.34-.37.54-.61.75-.85-1.06-1-1.95-2.43-3.22-3.07s-2.6-1.67-4.4-1.47c-1.28.15-2.66-.51-3.91-.78l-.73.56-2.41-.8c-.75,4.73-3.48,8-6,11.34C205.52,131.11,202.72,134.85,199.48,139.16ZM160.07,86.65,148,95.6c1.13,1.46,1.92,3.36,3.32,4.07,2,1,2.26,3.79,4.76,3.94,2.64,4.24,6.56,7.65,8.09,12.62.14.46,1,.69,1.69,1.16.76-12.16.48-19.24-1-26ZM246,57.29c2.08,3.39,5.68,4.58,8.7,5.63,3.92,1.37,6.71,3.24,8.59,6.83.38.72,1.42,1.1,2.24,1.7a5.08,5.08,0,0,0-.3-5.31l4-4.28L268,59.16H264l-5.21-3.76a50.72,50.72,0,0,0-8.27,1.73l-.92-1.94A3,3,0,0,0,246,57.29Zm-67.68-9.67c-2.62,1.53-4,3.94-5.15,6.31-2.83,5.64-5.39,11.42-8,17.15-.09.21.17.58.31,1h2.3a19.21,19.21,0,0,0,6.39-16ZM189,117.43c-4.72-1.24-5.78-6.87-7.93-10.67-.21-.39-1-.5-2-1a39.16,39.16,0,0,0,.06,5.8c.68,3.64,2.93,7.11,4.63,10.26l.78-1.68h1.32l.47,4.17,1.42-.41C188.16,121.7,188.54,119.7,189,117.43ZM175.09,133l1.34,4.07a5.39,5.39,0,0,1,1.34-.66c.28.27.51.51.74.74,3.5-4.29,4.18-7.29,2.54-11.39-.08-.19-.42-.28-.49-.32l-1.64.91-2.47-2.06c-.45,1.93-.83,3.59-1.25,5.4l1,1.37Zm.24-42.46c-1.51-2.4-1.91-4.56-4.57-5.42a6.11,6.11,0,0,1-4.3-4,9.24,9.24,0,0,0-1.62-2.34l-4,2c.67,1.32,1.3,2.55,2.1,4.1C167.18,85.63,170,89.63,175.33,90.49Zm72.74-4.66v1.85c2.7.77,4.31,4.19,8.22,3.22-.41-1.41-.77-2.69-1.16-4,.23-.38.52-.86.7-1.14l-3.11-2.22Zm-73.62,20.54,2.46-4.88-1.09-1.08-5.46-.78-2.23,3.5Zm-3.55,20.45V114.25h-1.56c-.72,1.47.43,3.42-1.26,4.54-.08,0,0,.32,0,.55,1.72,1.65,1,3.37.07,4.61.55,1.66,1,2.92,1.41,4.22Zm61.65-47.7A27.82,27.82,0,0,0,236,72.63c.14-.37-.11-.9-.18-1.37h-3.38C230.41,74,230.78,76.6,232.55,79.12Zm-135.91,158,2.63,3.64c.56-1.16.88-1.82,1.15-2.36l2.77,1.06-1.64-3.24c-.31.3-.54.53-1,1l-2.07-3c-2.77-.59-3.91,1.49-3.12,4.17Zm183.9-97.88c.53-.56,1.35-1,1.46-1.64a14.74,14.74,0,0,0-.15-3.3C281.06,135.89,279.18,137.12,280.54,139.2Zm29.69,121.33c-.74-2.5-.74-2.5-4-3.57ZM177.58,139.93c-.36,2.56-.36,2.56,1.83,4.22Zm118.6,1.84,2-1-.39-.7-2.92.4C295.67,141.25,296.12,141.7,296.18,141.77ZM167.82,113.16h-.5v3h.5Zm152.9,59.39c-1.45-.3-1.45-.3-1.34,1.11Zm-150.4,31.61h.5v-3h-.5Zm125.91-43.83.1.86,1.63-.39-.07-.47Zm7.09,94.83h.5v-2h-.5Zm6.75,6.33v.33h1v-.33ZM97.74,249.16H97.4v1h.34Zm203-13h-.33v1h.33Zm-54.66-9.67v.33h1v-.33Zm2.33-5.33h.33v-1h-.33Zm-156.66-2H91.4v1h.34Zm173.33-45.34v-.33h-1v.33Zm20-4.33v.33h1v-.33Zm0-2v.33h1v-.33Zm-8.67-17.33h.33v-1h-.33Zm-32.33-10.67v.33h1v-.33ZM75.4,96.16h.34v-1H75.4Zm68.67,1242c-2.62.48-3.26-2.22-4.24-4.19-3.54.68-5.32.92-9.06,0,.59,1.61,1,2.67,1.68,4.52l-3.09-1.18c-.59,1.24.06,3.32-2.21,3.83L124.8,1340c-.33.38-.69.59-.71.84-.11,1.43.39,3-1.5,4.15h-3.94l-4.34-2.22c-.47-1-1-2.3-1.7-3.72l-6.1,1.34-2,5.23a5.62,5.62,0,0,1-2.4-5.74c-1.85,1.78-3.13-.62-4.84.46-.88-1.09-1.82-2.24-2.83-3.5L92.42,1338c0-2-2.3-1.82-3.18-3.21a8,8,0,0,1,1.73-7.15c.54-3.61-.77-7.45,1.07-11,2-.85,3.65-1.94,4.36-4.53h6.67c-.73,1.48-1.45,3-2.17,4.45.91.2,1.23-.28,1.64-.38a11.21,11.21,0,0,1,2-.2,31.08,31.08,0,0,0,1.43-3.63c.08-.31-.61-.82-.94-1.24,1.57-4.2,5.6-6.67,8.44-10,2.45-2.51,5.44-4.63,6-9l-2.25-1.64c-.59-1.21-1.47-3-2.7-5.48l8.76,2.18a8.06,8.06,0,0,0,3.82-6.63l3.12-3c2.53-.7,4.62-1.31,6.73-1.83,1.71-.42,2.64-2.09,4.87-2.12,1.85,0,3.71-2.06,5.5-3.3s3.21-2.38,4.85-3.61l-1.45-1.45h-4.44l-2.21,2.85-4.54,4-1.6-1.61c-1.94.93-3.75,1.76-5.54,2.65s-3.86,2.79-5.78,2.77c-3.27,0-5.34,2.62-8.47,2.75-2.54.1-4.45,2.08-6.56,3.4-.62.38-1.68.05-2.3.44-1.8,1.1-3.48,2.41-5.21,3.64-1.37-.36-2.2.48-2.9,1.42-.91,1.24-1.72,2.55-2.69,4l-2.1-1.43L87,1293.48l.65.73-1.32,2.33-1.6-1.21c-4.1,1.86-8,4.13-12.15,5.77-3,1.12-4.29,4.35-7.24,5.09-.47,3.21-.85,6.16-2.28,8.74-4.48-1-6.55-4.94-9.87-7.2-.52-2.42-2.41-2.55-4.34-2.57-1.34,0-2.67,0-4.16,0l-1.45-1.33v-6.92c1.67-3.85,4.83-6.49,6-10.35,3.45-2.2,5-6.48,9.06-8.09a37.51,37.51,0,0,0,3.81-2c0-.18.13-.63.28-1.33l1.19.9c4.78-1.85,10.19.52,14.61-2.82.39-.3,1.2,0,1.72,0,.22-.82.33-1.27.45-1.72a106.79,106.79,0,0,1,11.67-3.1c3.84-.87,6.93-3.8,12.22-3-4.26-4-7.53-5.82-9.52-11-1.7-3.35-4.15-6.09-4.75-10.06-.52-3-1.63-6.12-4.39-8.14a25.5,25.5,0,0,1-2.42-2.24v-3.21c3.72-1.64,7-4.48,11.63-3.27,3.06,2.72,6.25,5.52,9.39,8.36,2.89,2.61,4,6.81,7.88,9.12a21,21,0,0,0,5.09,7.92,56.24,56.24,0,0,1,4.63,5.5c.92-.16,2.16-.3,3.35-.61,1.65-.43,3.24-1.31,4.88-1.41,2.52-.14,3.89-1.52,4.9-3.48-.57-2.55-2.4-4.54-3.46-6.89a26.7,26.7,0,0,1-2.23-7.54c-.51-3.91-1.61-7.34-4.51-10.17-1.19-1.17-1.93-2.79-3.44-5a67.27,67.27,0,0,1-7-2c-2.35-.91-5.61-.79-5.82-4.81l2.46-2c5.41-.76,10.8-3.61,16.33-3.12l3.38-1.78c1.25.84,2.3.88,4.05,0,2.41-1.22,5.2-2.46,8.06-2.15,6.27.68,11.84-1.6,17.5-3.64,2.75-1,5.58-1.66,8.24-3.06,1.59-.83,3.87-.34,5.1-.4,3.43.47,4.81,2.94,7,4.26,1.82,1.11,2.21,4.19,4.46,5.31l-3.28,2.17,2.06.43-1,4L180,1218.5c.52,1.48.92,2.65,1.36,3.91-2.68,2.34-5.53,4.3-7.69,6.85s-5.06,4.28-7.11,6.9c-2.28-.19-2.22,2-3.08,3.16a2.3,2.3,0,0,0,.3,3.13c-.3,1.21-.55,2.24-.86,3.48l8,1.58a13.16,13.16,0,0,0,.13-2.68c-.22-1.22-1-2.43-.89-3.58.2-2,2.12-3.38,2.11-5.65,0-.84,1.47-1.68,2.52-2.78l3.64,1.57a24.31,24.31,0,0,0-2,4,22.79,22.79,0,0,0-.48,4.14l-2,3.83a23.1,23.1,0,0,0,9.75,2.66,69.64,69.64,0,0,0,2.28-8,5.59,5.59,0,0,1,2.89-4.3c1.06-.66,1.48-2.32,2.19-3.52a9.43,9.43,0,0,0,1.58-2.22c-.19-.53-.57-.33-.55-.19a9.13,9.13,0,0,0,.43,1.41c.18-.61.35-1.21.12-1.22a9.43,9.43,0,0,1-1.58,2.22h-2.64l4.81-8.17c-1.82-4.29-1.05-9.47-5-13.2v-4.64c1.07-1.26,2.36-2.89,3.79-4.39a3.69,3.69,0,0,1,2-1c2.67-.33,4.92-1.85,8.46-3.6a9.63,9.63,0,0,1,6.84-3.67c2.69,1.64,6.26.2,9.49.83l.56,3,1.2-1.07,1.21,1.21c1.08,3.37-.91,6.28-1.89,9.35-.47,1.46-1.5,2.77-1.79,4.24-.32,1.64-2.81,2.09-2,4.2l-.14-.15-.82.7.32.31a5.49,5.49,0,0,0,.64-.86c.78,0,1.61,0,2.54,0,.32,1,.66,2,1,3.06.18.59.63,1.41.4,1.78-2,3.16,0,6.82-1.32,10s-.09,6.51-.76,9.79c-2.61,2.74-1.84,6.09-1,9.42l.27-5.72.47-.11a12.42,12.42,0,0,1,.4,1.68,3.74,3.74,0,0,0,.57,2.07l1.83-3.81c2.33.26,1.39-2.76,3.19-3.11.48,2.43,1,4.89,1.48,7.61l1.45.49c.52,1.16,1.08,3.27,1.51,3.24,2-.12,1.6,3.23,4.34,2.38-1.8-2.83-3.44-5.39-5.09-8a10,10,0,0,0,.7-2.48,91,91,0,0,0,0-9.49,15.16,15.16,0,0,1,1.38-6.46,7.74,7.74,0,0,1,4.37-4.67c4.1-1.76,5.82-3.64,8.29-7.31.16-.24,0-.77.13-.93,4.87-4.49,8-10.17,10.95-16,1.15-1.73,4.07-1.5,4.17-4.18,2.23,0,1.71-2.9,3.85-3.34l1.45.93c3.32-2.46,4.26-7.23,8.43-9.45-2.07-.48-4.43-1.83-6-1.2-2.27.91-4.7,0-6.53,1.06-1.5.88-2.85.43-4.22.74a20,20,0,0,1-3.59.94c-3.05.06-5.85,1.3-8.8,1.67s-6,.92-8.91,1.55c-3.89.84-7.88.85-11.68,1.88-5.67,1.53-11.4.68-17.09,1a9.58,9.58,0,0,0-2.25.59c-1.72.52-3.4.87-5.07-.26-1.24-.84-2.39-.37-3.47.63l-3.23-4.72v-3.74l7.37-9.82,4.1,1.38a9.73,9.73,0,0,0,1.12,3c.65.8,1.81,1.18,2.95,1.86h4.61l3.71-2.61-5-1.85c4.86.24,9.22-2.06,13.95-2.66,4.21-.54,8.24-2.51,12.36-3.83,6.32-2,12.72-3.8,19-5.9,2.8-.93,5.18-2.65,8.15-3.36a55,55,0,0,0,7.57-2.14c2.43-1,5.33-1,7.78-1.78,5.23-1.65,10.68-2.17,15.93-3.65,3.24-.92,6.95-.17,10.45-.17,3.71,1.23,5.2,3.89,4.77,7.53,2.15,2,5,2.51,6.84,4.7s4,4,6.09,6.18c-.23.3-.47.62-.81,1l.84,1-1.94.94,1,1.08c-3.46,9.36-15.45,7.18-23.47,7.48l-3.08,3.69c-.3-1.58-.47-2.49-.68-3.54H275a32.26,32.26,0,0,1-2.21,5.39l2.27.79-2.91,1.9,1.29,2.75,8.69,2.66,3,3.43c.33,1-1,3,1,4.5l-4.11,3.43v-2.78l-3.29,1,1.42-2.24-3.74-4.83-3-.91-3.09,12.42.92,1-2.36,1.82c1.27,2.46,1.89,4.8.41,7.21,2.82-.61,3.47-1.62,3.78-5.86,0-.16,0-.36.08-.46.78-.86,1.57-1.71,2.36-2.56,1.76,1.35,3.19-2.47,4.93,0l6.14-6.78h3.24c-.25,2-2.48,3.37-1.43,5.86a61,61,0,0,0,12.41-9.67c1.36,2.81-.78,5.24-2.08,7.33-2,3.11-4.68,5.75-7.27,8.41a36.21,36.21,0,0,1-4.83,3.5l-4.36,4.93c-.52-.65-.86-1.06-1.24-1.52a.79.79,0,0,0,.14.15l.82-.7-.32-.31a5.49,5.49,0,0,0-.64.86c-1,1.1-1,1.1-.08,2.48l-.87,1.57c-.67.66-1.33,1.33-2,2l-.83.32.83.68-1,1.74,2,.26c-.11.6-.18,1.72-.32,1.73-1.39.1-1.81,1.14-2.07,2.83l-.94-2.4-3.67,2.48v3.36a8.49,8.49,0,0,0-.95,1l-.14-.15-.82.7.32.31a5.49,5.49,0,0,0,.64-.86,8.49,8.49,0,0,1,.95-1h1.85c-.67,1.23-1,3-1.9,3.32-3.76,1.49-3.65,5.56-5.68,7.91,4.75,3.93,8.54,9,14.21,11.73.4.2,1,.1,1.32.38Q290,1271,298,1278.63c.17.16.05.63.08,1l4,2-1,1.17,1.93.69c-.35,1.2,1.21,2.83-1,3.71l.15-.14-.69-.82-.32.31a5.39,5.39,0,0,0,.86.65c.05.78.05,1.61.05,2.64l3.1,2c-.86,2.51-1.86,2.37-4.1,2.29a7.67,7.67,0,0,0-.05-1.05.79.79,0,0,0,.14.15l.82-.7-.32-.31a5.49,5.49,0,0,0-.64.86,3.3,3.3,0,0,1-.78.37l.83.68c-.36.68-.71,1.36-1.1,2.11l1,1.5-1,1-4.5-.86-2.49,4.15,1.2,2.11c-2.26,2.39-2.57,2.44-5.6,1a3.72,3.72,0,0,0-.59,1.3l-6.65-6.65c-4.13-.85-3.87,3.13-5.8,4.33-4.21-.38-8.67,1-13.41-1.86-1.47-2.38-3.68-5.53-2.87-9.72l-3.85-3.09c3-3.39-2.26-5.81-1.18-9.26H249l-6.81,3v3.9h1.91c.15.75-.5,1.91,1,1.94l-.15.15.7.81.32-.31a6.16,6.16,0,0,0-.87-.65c.43-1.87,2-.56,3-.94l.74,1.57a13.84,13.84,0,0,0-3.67,8.75c-.22,3-2.63,6-.17,9.2l-.87,1c.8.91,2.93.7,5-.49,1.81-.39,3.91.89,5.59-1.12l.54,1.75,4.39,1.4.91-2,1.57,2c-3.46,1.48-7.67,2.15-11.54,2.81l-.82-.62-7.41,1.15c.55,3.07.54,6.8,1.83,9.58,2,3.23,1.21,7.38,3.7,10.45.49.61.1,1.9.26,2.85a19.26,19.26,0,0,0,.73,2.43l-4,21.2-2.12.53,2.57,1.34c-.64,1.13-.92,1.63-1.26,2.21l1,1.75c-1.53,5-1.12,10.29-4.87,14.34-.09-.69-.22-1.34-.24-1.42l-2,.75.38.55c.59,0,1.19.09,1.83.12a3,3,0,0,0,0,1.46c2.87,6,1.79,12.39,2,18.89-2.67,2.12-1.25,5.86-3,8.53,1.66,3.39,3.38,6.74,3.06,10.74-.07.86.6,1.75.72,2.66.14,1.1.54,2.71,0,3.26-1.88,1.87.07,3.24.3,4.79l-.88,1,.86,2.41-.65.3-2-3.16c-1.39.44-2.62,1-2.27,3.27l1.52-1.16c.22,2,1.94,2.26,3.57,3.17l2.36-2.09,1.85,1.85h3c.95,1.22,2.32,1.87,2.77,3.77s.47,4.58,3,5.72l-1.8,1.6-1.08-1.62c-3.1-.25-3.1-.25-4.72.5-.59-1.3-1.19-2.61-1.79-3.91l-.61.2v3.21l-3.16,2.62-.33-.83-.67.83-2.75,2c-.57-.92-1.14-1.84-1.8-2.93l-.83,1.82-3.16-3.69h-5.16l-3.68,2.45-3.16-.78-1.21,3.88c.08.1.4.44.7.77-.32.36-.61.7-.93,1.08l6.46,1.31c1.16,1.51-.6,3.42,1.52,4.1l1.62,2.21,6.3-3.24c-.17.76-.1,1.62-.49,2a34.68,34.68,0,0,1-3.3,2.64v3.1l2.5.85-3.69.71c.64,1.55,2.87-.37,3.06,1.72l-1.73,2.2-1.93-1.14-1.68,4.22c2,1.1,2.46,3.89,5.38,3.66l-.15.15.7.81.32-.31a6.16,6.16,0,0,0-.87-.65c.08-.23.19-.51.43-1.1l5.32,2.5c-.47,2.51,2.81,4.38,2.1,7.43l-3.89-1.19-1.92-2.38c-2.68-.76-3.67.77-4.72,2-2.36,2.72-3.5,3.56-6.3,4.19,0,.61-.06,1.26-.09,2.12,4.11,4,7.93,8.46,13,11.52l1,1-.44,2.32c-2.15-.75-1.81-3.65-4.52-3.5-1.54.08-3.17-1.64-4.75-2.55l-.77,1.88-2.52-3.48A3,3,0,0,0,226,1496a17.24,17.24,0,0,1-1-13.8,7.22,7.22,0,0,0-.84-6.07,26.23,26.23,0,0,1-1.79-4.46l2.73-5.31c-.06-2.17.54-4.82-1.89-7.27l-2.94,1c.36,1.24.66,2.06.83,2.91.29,1.54-.68,3.33.9,4.62-1.2,1.15-1,2.64-.87,4,.31,4.68-.58,9.38.81,14.11.6,2,1.08,4.87-.8,7a1.58,1.58,0,0,0,0,1.45c1.76,2.55.62,5.41,1,8.09.25,1.84.69,3.65,1.09,5.69h-3.8c-.12-.37-.32-1-.59-1.75l-2.18-.13-2.6-4a23.88,23.88,0,0,0-.35-15.92l-4.38-3c-.15,1-.28,1.91-.59,4l-4.22-12.78c.15-.59.37-1.47.6-2.34l5.36,2.57c-.6-1.63-.89-2.41-1.24-3.38,1.78-4,.47-8.43.93-12.87l-1.77-.49c-.15,1-.29,1.91-.48,3.21l-3.74-.61-1,1c-.31,2.55.63,5.23-1,7.61a1.88,1.88,0,0,0,0,1.45c.15.4.58.69.89,1l-1.73,1.73a11.45,11.45,0,0,1,.36,8.44,13.36,13.36,0,0,0-.56,3.74c-.06,4.66,0,9.33,0,14.35l-4.06.26-5.47-4.21a42.74,42.74,0,0,1-1.44-15.29c.38-6.25-1.83-12.35-1-18.58.73-5.46,1.08-11,2.72-16.34,1.25-4.06-.19-7.84-2.34-10.64-.53-3.25-1.16-5.91-1.36-8.6a13.49,13.49,0,0,0-2.22-7.09c-1.55-2.19-3-4.43-4.66-6.84-.12-4.43-1.61-9-1.25-13.74a7.88,7.88,0,0,0-1.24-4.43,4.05,4.05,0,0,1-.09-4.49c.53-1.07.45-2.45.71-4.1.85.49,1.74.69,2.07,1.23,2.14,3.64,3.92,7.49,6.77,10.67,1.41,1.75,3.5,2.9,4.3,5.23.18.54,1.26.82,2,1.14s1.44.54,2.26.84l.85-.77,1,.89c.41-.4.76-.76,1.28-1.28v-4.15c-2.16-3.35-5.33-6.12-5.89-10.54-.35-2.7-2.83-3.94-4.85-5.26.31-2.63.7-5.14.88-7.67a11.71,11.71,0,0,0-.87-5.12c-1.68-4.44-1.66-7.51,0-13.1.93-3.2,1.27-6.51,2.12-9.63,1.17-4.28.86-8.48.59-12.62-.13-2.12-.77-4.35-.79-6.59s0-4.33,0-6.48l1.89-1.89v-5.9l-2.73-4c-.6-1.82.7-3.85-1.15-5.22l1.1-1.1,3.77.86a6.92,6.92,0,0,1-.41-1.3c-.1-1.56-.75-3.46-.11-4.64,1.63-2.94,0-4.81-1.44-6.88-.91-1.3-1.89-2.55-3-4l3.37-2.46-3.61-2.63c.4-.7.71-1.23.88-1.55-.54-3.32-1.41-6.53-1.5-9.76s.61-6.37,1-9.45c-1.29-2-3-1.81-5.58-1.27l2.92,1.24-2.19.62.55.68H171.06l-10.84,5.78-1-.83-2.07,1.23-1.93-1a.92.92,0,0,0-.93.28c-1.64,1.54-3,3.45-5.22,4.25-.69,3.13-4.79,4-4.7,8.21l1.91.66,1.47-.84c.19,1.29.32,2.18.51,3.44a28.4,28.4,0,0,0,3.8,0c1.22-.16,2.38-.75,3.59-.93,4.48-.18,7.33.3,12.13-.7l2.85,1.47c4.12-1.69,7.21-2,9-.75a10.19,10.19,0,0,0,4.43,1.89l3,3.06c.4,1.82.81,3.65,1.14,5.16-3.49,2.22-4.86,5.26-7.21,8.37s-5.49,4.24-8.92,6.43c-2.25-.4-5.05.47-8-.81-2.36-1-5.06.1-6.88,2.23v5.77c2.37-1.63,2.59-4,3.24-6.11l1.71,1.6c-1.21,2.13-2.36,4.13-3.53,6.18l2.6,3h-2.71c-.83,1.28-1.59,2.46-2.48,3.82l12.48,1.39c1.29-2.13,2.55-4.24,4.16-6.91,2.11-1.36,5-3,7.13-6l2.23-.4-1.23-2.26,1.52-.51c1.46.88,1,2.93-1.64,6.07a2.13,2.13,0,0,1,.47,0c-.12-.65-.25-1.3-.38-2l-.64.09a3.5,3.5,0,0,0,.55,1.9,9.83,9.83,0,0,1,1.8,3l-3.23-1.32v6.89c-1.42.42-2.13.93-2.5,2.14-.25.8-1.26,1.37-2.51,2.62l2.72,1.27v5.66c-.71,1.4-1.47,2.92-2.13,4.23l-7.1,2.31-2.55-1.27c.19,1.3.31,2.08.43,2.83l-3.33,3.27-1.89-2.3-9.13-1.64-2.28-2.28v-5.39l-.52,0-.65,2h-2.74l-.33-.83Zm8-24c.33-.34.67-.67,1-1,1.53.23,2.91-.57,2.88-1.88,0-1.84,1.26-2.53,2.09-3.65a28,28,0,0,0-9.48-9.47h-11c-1.41-1-2.81-1.89-4.21-2.83-.32,1.05-1.12,1.53-1.95,2.19s-.93,2.28-2.46,2.74l.19-.19-.69-.82-.32.31a2.83,2.83,0,0,0,.91.6c.25,2.13-1.31,2.89-2.77,3.72l-.76-.7c-.9,1.28-2.92,1.86-2.47,4-2.26.6-2,2.93-3.27,4.21.82,2.09,1.55,3.94,2.37,5.88l-.19-.2-.82.7.32.31a2.93,2.93,0,0,0,.59-.9h1.53c.88,1.78,1.77,3.56,2.61,5.23l-1.41,1.8,2.26,2.59c-2.31,1.15-4-.22-6-1.06a8.07,8.07,0,0,0,0-1.9,2.09,2.09,0,0,0-.54-.91c.3-1.16.46-1.84.81-3.23l-1.67,1.37L117.8,1320l-1.62,1.46v-3.9l1.88-1.88-.42-.38c-1.34-.48-2.25.23-3.37,1.07-2,1.51-4.2,3.09-6.79.87l-2.76,5.14a25.85,25.85,0,0,0,4.38,2.73c1.47.55,2,2.47,4.15,2.22,1.29-.16,2.73,1.64,4.15,1.72,3.3.25,6,1.21,9.23,1.09,1.64.13,3.87.67,4.84-.15,1.51-1.28,3.28-.13,4.52-1.18l-1.42-2.5,2.67-1.56c-1.7-1.12-1.21-2.58-1.13-3.81a9.06,9.06,0,0,0-1.6-5.84,2.56,2.56,0,0,1-.22-.66l3.44-.93,2.41,1.22a29.36,29.36,0,0,0,3-.66l-.2.2.7.81.32-.31a2.91,2.91,0,0,0-.91-.59c.2-1.74-.8-3.88,1.6-4.87l4.5,4-.19-.2-.82.7.32.31a2.93,2.93,0,0,0,.59-.9l4-3.13v3.13a4.76,4.76,0,0,0-.9,1.09l-.19-.2-.82.7.32.31A2.93,2.93,0,0,0,152.07,1314.16ZM114,1262.07l.2.19.82-.7-.32-.31a2.86,2.86,0,0,0-.59.91,2.34,2.34,0,0,0-.79,1.63l-2.3-2.12c.15,1.34.21,1.88.29,2.63a2.36,2.36,0,0,0,1.8-1.14A4.89,4.89,0,0,0,114,1262.07Zm-6.39,12.8,3.38,1v-2.62a6.79,6.79,0,0,0-2.78,2l-.19-.2-.82.7.32.31A.85.85,0,0,0,107.57,1274.87Zm134.27,19.26-.86,0,.38,2,.65-.09c-.06-.64-.11-1.27-1.53-1.81,1.29-1.14,2.28-2.26.51-5.1C241.7,1291.67,239.18,1292.36,241.84,1294.13Zm-134.31-20.7-3.54-1,.42,3.34c1.23-.92,2-1.47,2.16-3.1l.51.53,2-.15c0-.7-.08-1.24-.13-1.9C108,1271.74,107.28,1272.2,107.53,1273.43Zm52.3,55.92c3.11-.38,4,2.67,5.8,3.74.48-2.08.88-3.84,1.25-5.6,0-.09-.21-.22-.53-.53l-3,.93-1.49-1.12c-.76,1-1.38,1.78,3.06,6.31l-4.65.4,2.41.88,1.75,6.72.49-.07C164.9,1338.39,164.9,1335.77,159.83,1329.35ZM125,1268.81l-1.51-2.6-4,2.67-2-1-1.84,4.17c4.06.54,6.64-1.53,9.19-4l.2.2.82-.7-.32-.31A2.58,2.58,0,0,0,125,1268.81Zm82,78.35c-1.7,5-2.08,10.54-6,14.65,0,1.81-.13,3.64,0,5.45s.82,3.7.9,5.57a19.39,19.39,0,0,1-.75,4.2l1.58.08c.55-4.79,3.62-8.48,5-12.49.34-2.84.64-5.36,1-8.21l-1.71-1.79c0-2.49,0-5-.11-7.55l.2.19.82-.7-.32-.31A2.86,2.86,0,0,0,207.07,1347.16Zm-63.78-114,.86,0c-.12-.65-.25-1.3-.38-2l-.64.09c.05.64.11,1.28,2.49-.06-3.08,4.38-1.38,12.71.82,18.74l6.3-3.09c-.34-1.23-.67-2.38-1-3.52l-1.58-.53c.47-.93.9-1.75,1.32-2.58l2.51-.2v-4.64c2.59-.8,3.32-3.23,5.38-5l-4-.44c-.31-.81-.48-1.26-.94-2.44-.27,1.77-.41,2.68-.64,4.2l-2.14-3.39-2.44,1.25,3.61,5-4.37,3.42-1.4-1.4v-4C146.32,1231.91,146,1231.56,143.29,1233.18Zm104.92,44.63,1.09-2.91c-5.42-6.13-10.56-12-15.78-17.84-1.16,1.64-2.27,3.19-3.63,5.1.51,3.08,1.13,6.52,1.61,10,.11.76-.59,1.67-.37,2.35.72,2.29,1.68,4.51,2.66,7l5.45-3.46,1.15.87ZM204.42,1259l-2.86,10.17h-1l-1.47,4.35c2.12,1.29-.46,5.31,3.44,5.68.32-.61.68-1.27,1.17-2.19.35,1,.55,1.6.78,2.24l2.76-4.19-1.14-2.89c.59-1.25.85-2.88-.12-6.62C205.43,1263.47,206.4,1261.15,204.42,1259Zm-8.28,150.81c-.49,5,3.14,8.13,3,12.1l2.55,1.06.88-.64,1.34,1C203.66,1419.2,201.09,1414.78,196.14,1409.78Zm7,17c-.53,2.61-1,4.75-1.32,6.53,2.51,3.12,2.73,7.31,6.7,9.19.27-.76.46-1.29.67-1.91l-2.27-.81v-8.61h-.59l-.59,3-.58,0v-5.36Zm27.47,9.74-6.3-9.15c-1.31,1.48.93,2.92.74,4.16l-.85,1.14,5.4,9C230,1439.69,230.3,1438.21,230.64,1436.5Zm-18.91-127.39a19.62,19.62,0,0,1-1.61-3.52c-.22-2.06.06-4.23-.35-6.32l-.57.08v5.57l-2.08,1.59v4.25l.57-.51c.3.8.59,1.6.87,2.36l4.9-2.93Zm-14.49,9.29v3.65H201c.46-1.83.91-3.62,1.35-5.41l-1.16.65c-.22-.88-.43-1.76-.55-2.27ZM196,1248.07a10.31,10.31,0,0,1-.88-2.49c-.09-2.29,0-4.58-.06-6.87,0-.14-.4-.28-.62-.43l-1.07,3.6c1.92,1.54-.16,4.17,1.1,6.19Zm39.92,186v-2.67c-1.69-1.15-3.1,1.28-5.48-.71l1.94,3.45L234,1433ZM128.15,1262.84l3-2.24-3-1.25Zm-8,3.17c1-.44,1.91-.81,2.78-1.21.1,0,.12-.26.22-.53l-.5-1.25C121.05,1263.39,119.92,1264,120.12,1266Zm-18.74,12.15c.45-1.91,2.46-2.06,1.35-3.86l-3,1.61Zm117-101.33c3.11.11,3.11.11,5.21-2.09ZM157.15,1330.3l1-.18-1-2.38Zm49.75-47-.89.09.38,2.62.51,0Zm4.34-38.31.89-.09c-.13-.87-.26-1.74-.38-2.62l-.51.06Zm-1.92,235.16h.5v-2h-.5Zm3.92-29.16.86-.11-.39-1.63-.47.08Zm-12-51,.86,0c-.13-.56-.25-1.12-.37-1.67l-.49.06Zm6-59,.86,0c-.13-.56-.25-1.12-.37-1.67l-.49.06Zm37-46,.86,0-.37-1.67-.49.06Zm-35.92-4.81h.5v-2h-.5ZM175.89,1286l-.06-.85-1.67.36.06.49Zm-72.64-7.65.06.85,1.67-.36-.07-.49Zm3-1,.06.85,1.67-.36-.07-.49ZM133.91,1261l-.11-.86-1.63.39.08.47Zm-13.67,1,.86-.11-.39-1.63-.47.08Zm-2-2,.86,0c-.13-.56-.25-1.12-.37-1.67l-.49.06Zm85-12.64.06.85,1.67-.36-.07-.49Zm-1.43-5.17h-.5v2h.5Zm6.42-3.19.86,0-.37-1.67-.49.06Zm8.83-61.48v.33h1v-.33Zm-3.67,42.67h.33v-1h-.33Zm69.67-.67v.33h1v-.33Zm-88.67,17.67h.33v-1h-.33Zm75.67,1.33v.33h1v-.33Zm-68.34,6.67h-.33v1h.33Zm-72.33,13h.34v-1h-.34Zm-3,4h.34v-1h-.34Zm-12,8h.34v-1h-.34Zm95.33-1h-.33v1h.33Zm-.33,5h.33v-1h-.33Zm30.67,16.66v-.33h-1v.33Zm-119,13.67v.33h1v-.33Zm16.33,22.67h.34v-1h-.34Zm-14.66,14h-.34v1h.34Zm119.33,32.66v-.33h-1v.33Zm-6,62v-.33h-1v.33Zm-28,8v-.33h-1v.33Zm5.66,8.34h-.33v1h.33Zm-.33,32h.33v-1h-.33Zm142.67-794-1.56-.92c-.43,3.36-.43,3.36,4.2,13.22,1.18-3.52-1.67-5.36-2.49-8,.35-.34.82-.81,1.2-1.2l2.5,1.22c.36,9.43-.49,13-3.52,14.8a2.56,2.56,0,0,0-.32.87,25.26,25.26,0,0,1-4.88,16.49c-2.25,3.08-3.5,6.87-5.42,10.21-5.35,8.72-11.74,16.9-14.78,26.86-.84,2.77-2.47,5.3-3.93,8.34a17.73,17.73,0,0,1,0,2.51,13.44,13.44,0,0,0,2,8.67,18.26,18.26,0,0,1,2.12,7.65c.56,4.6,2,9.69-.4,14-1.6,3.5-4.12,6.55-4.79,10.52-.16,1-1.46,1.72-2,2.32-1.75.41-3.34,1.27-4.63,1-1.63-.41-2.83.58-4.32.56s-2.5,1.4-4.33.17c-1.17-.78-3.19-.32-5-.42L302,817l-1.82,1.32-9-5.19c-3.54-.19-7.72.9-10.68-2-3.37-.22-5.73-2.24-8.3-4.18a9.4,9.4,0,0,0-7.38-1.78c-3.12-2-6.05-3.26-8.19-6.07-2.74.43-4.11-1.81-5.87-3a45.87,45.87,0,0,0-4.76-3,4.45,4.45,0,0,1-1.87-1.44c-1.85-3.09-5-4.79-7.37-7.35-1.4-1.54-2.58-3.27-3.92-4.86-1.15-1.39-3.08-1.93-3.84-3.82-1.71-4.28-4.92-7.62-7.35-11.45a11.88,11.88,0,0,1-.75-2.68c-.68-2-1-4.38-2.22-6a46.39,46.39,0,0,1-3.06-5.26,17.35,17.35,0,0,1-2.59-10.42,16.67,16.67,0,0,0,0-2c-.17-6.29-.21-12.56,2.67-18.68.72,3.7,0,7.38.38,11.09.19,2.7.79,5.36,1.3,8.65,2,1,1.62,4.16,3.69,6.07a51.88,51.88,0,0,1-1-5.35c-.19-2,.56-4.31-.25-5.88s-.68-3.14-.76-4.69c-.12-2.33.12-4.68-.06-7a94.24,94.24,0,0,0-2.44-16.95,10.42,10.42,0,0,1-.45-3c.19-3.34-1.39-6.07-2.78-9.84l-2.09,6.54.76.86-.85.85A15.37,15.37,0,0,1,213,703a14.2,14.2,0,0,1,.72,3c-1.47,1.79-2.09,4.74-4.68,6.23,0-.67,0-1.34,0-2a.79.79,0,0,0,.14.15l.82-.7-.32-.31a5.49,5.49,0,0,0-.64.86c-.89.49-1.84.94-3,1.48,0,.8.11,1.67.17,2.65l2.85-2.08c-.14,3.48-2.77,5.35-5,7.39a16.48,16.48,0,0,1-4.4,2.58c-4.15,1.9-5.12,5.93-6.56,9.62-.18.45.31,1.15.55,1.93l-3.25,5.48c-3.07-.61-6.4-1.23-8.86-4l-1,.89c-.58-1-1.13-1.91-1.66-2.82-1.7.5-1.75.48-4.35-1.1h-6.24c-1.12,4.37,2,6.38,4.78,8.58v1.44l3.57,3.56,5-1.93c.4,4.12.4,4.12-2,7.32H177.7c-.81,1.2-1.6,2.37-2.45,3.65l1.12,1.19c3,.77,5.56-.53,8.34-1.62l.86.78,1.06-1c4.69,1.83,10.17.25,14.55,3.53,1.06.8,2.59.93,3.86,1.49,2.51,1.12,6.06.25,7.33,3.79l6.36,2.24c2.63,5.13,3.43,8.82.72,14.11-2,4.1-4,8.14-7.31,11.52-1.95,2-3.95,4.4-4.19,7.72-.12,1.54-1.52,3-2.24,4.3l-14.09,1.4-2.3-2.47-14.25-4.62-.33-.83-.67.83h-2.46l-2,3.17c-.26-.56-.58-.94-.49-1.11a18.21,18.21,0,0,1,2.08-3.62c3.73-4.29,6.1-9.2,8-15.67.68-2.39,2.09-4.56,1.92-7.18-1.76-1.84-4-1.63-6.27-1.6-5.53-.14-11,.56-16.54,1-.57.06-1.06.78-1.62.86-1.56.21-2.8,1.37-4.55,1.19-1.14-.11-2.37.61-3.78,1a10.6,10.6,0,0,1-.52,2.61,12.82,12.82,0,0,1-1.72,2.29L144.52,782l-3.13-2.44c-3.19,2.49-7.33-2.81-10.85.53-2.76-2.65-3.23-5.53-1.1-8.89,1.57-2.48,2.7-5,5.5-6.76,2.56-1.63,4.13-4.82,6.12-7.34.18-.23.17-.67.38-.83,4.51-3.39,7.15-8.38,10.45-12.72a99.08,99.08,0,0,0,9.4-14.54c2.91-5.61,5.29-11.64,9.2-16.69,2.44-3.15,3.58-6.88,5.56-10.22,1.41-2.4,2.67-4.88,3.87-7.39a8.27,8.27,0,0,0,.19-2.64c-3,.73-5.73,1.24-8.34,2.09s-4.81,2.06-7.26,3c-2.73,1-4.14,3.52-6.34,6.21-.38,6.47-2.37,11.27-8.32,15.48-4,3.49-10.86,6.35-15.39,6.26-6.62,0-12.06-2.26-16.39-7.47v-3.5c2.11-1.45,3.21-3.81,5-5.54a44.73,44.73,0,0,0,5.59-5.68c4.74-6.47,9.74-13.49,17.52-16.46a16.68,16.68,0,0,0,4.87-2.73c4-3.16,9-4,13.65-5.57,1.62-.54,3.54-.46,4.93-1.31.83-.5,2.24-.4,2.69-2.23.4-1.66,2.74-2.41,4.78-2.49,2.83-.11,3.44,0,5.73,1.08,2.46-1,5-2.09,7.63-3,3.23-1,6,.74,8.39,2.35s4.57,3.27,7.3,4.12c2.31.72,3.47,2.7,5.27,4.22l-1.58,2a10.73,10.73,0,0,1,2.54.18,13.22,13.22,0,0,1,2.51,1.51,47.89,47.89,0,0,1,.21-5.76,30.5,30.5,0,0,1,1.44-4.6l1.51-.55c0-6.2.24-12.36-.09-18.48-.21-3.81,1.1-7.35,1.14-11.08a3.85,3.85,0,0,1,1-2.06c1.84-2.4,2.6-5.24,3.3-8h1.31l.88,2.54c.4-1.12.66-1.86.93-2.6l.39.56V627.3c-1.17,2.33-.56,4.93-3.75,4.87a59.66,59.66,0,0,1,.1-8.66c0-.14.53-.24.55-.35a44.06,44.06,0,0,0,3.27,4.36c-.09-1.79-.15-3.09-.21-4.36H223.8c-.46-3,.77-5.86,1.51-8.51,1-3.72,1.09-7.64,2.52-11.24-1.77-1.08,1-1.63.33-2.82a2.63,2.63,0,0,1,.53-2.72c.58-.76-.08-2.52.52-3.22,1.77-2,.74-4.58,1.62-6.85,1-2.61.09-5.92.28-8.91.18-2.82.72-5.62,1.13-8.63-9.17-.71-15.82,3-21.11,9.48-.16,1,.1,2.13-.77,2.63l4.3,4.28c.72,2.67.33,4.12-1.09,5.64s-1.93,3.51-3.11,5.21a11.31,11.31,0,0,1-3.2,3.12,6.72,6.72,0,0,1-3.89,1.62c-1.14,0-2.27.87-3.49,1.38L196.64,610c-1.32.24-2.9.21-3.63,2.16s-2,3.44-4.76,2.88l-2.9,3-5,1.3-.43-2-3.51,1.78c.29,1.25.55,2.37.82,3.51l-1.64,1.4c-.36-.15-1-.64-1.27-.49-1.36.92-3.5,1.12-3.41,3.32l-6,2.84,4.82,2c2.89,2.3,6.38,4.59,9.25,7.5s5.25,6.51,8.21,10.28c2.49,8.28.23,15.51-7.89,21l-11-1.12c-1.92-1.31-3.52-2.33-5.05-3.46-2.81-2.07-6.15-7.84-8.35-12-1.82-3.47-2.32-7.38-4.37-10.7-2.16-3.66,2-7,4.37-9.36.08-.72.16-1.51.3-2.71l5.74-2.46c-3.08-1.15-6.25-2.35-9.77-3.32-4,1.7-8,1.12-11.58-2-2.14-1.85-4.58-3.16-6.06-5.9-1.14-2.12-2.67-3.88-2.57-6.49,0-.63-.73-1.3-1.12-1.93.48-.54.81-.9,1.13-1.27l-1.16-1.51c2.93-3.47,5.76-6.8,8.6-10.15,2,2.3,4.1.67,6.3.15,2.55-.34,4.84-1.21,7.74-.23,5.07,1.54,9.84-2.94,14.26-5a75.34,75.34,0,0,0,12.47-8.49c2-1.63,3.7-3.55,5.9-5a11.77,11.77,0,0,0,5-6.36,9.27,9.27,0,0,1,1.59-2.22c1.71,1.73,4.88,1.12,5.71,4.19l2.46.26c.09.47.19.92.35,1.73l2.28.19c.84,2.69,3.76,2.58,5.57,4,1.71-.64,2.28-1.83,2-3.66l-2-.67v-4l-1.74,1.48-.35-3.72-2-2.22c.43-1.77.82-3.38,1.39-5.75l-6.31,2.94c.41-1.11.8-1.66.75-2.16a4.19,4.19,0,0,0-.76-2.16c-1.66-2-.94-3.8.43-5.8l2.7-.9c1.34.21,2.84.91,3.35.46,3.4-2.86,7.37-1.64,11.27-1.88l1.65-2.7L215,547.9c.26-1.21.5-2.34.75-3.49l-1.62-.6c11.13-5.24,17.56-7.17,27.31-4.6l2.13-1.93c5,2,9.82,3.66,14.33,6a67.26,67.26,0,0,1,13,8.73c4,3.36,8.87,5.66,11.87,10l3.47,7.56c-.39,4.41-.87,9.74-1.4,15.78-1.86,2.8-4.12,6.22-6.61,10-.11.57-.3,1.67-.51,2.76-.18.92-.76,2-.49,2.73a5.46,5.46,0,0,1,0,3.72c-.41,1.33.31,2.77-.89,4.18-.66.78-.17,2.56-.15,3.89a14.57,14.57,0,0,1-3,9.14c-3.71,1.51-7.07-.65-10.64-.63l-2.32,3.41c-.41-.56-1.05-1-1-1.39a12.86,12.86,0,0,1,1.08-2.49c-2.2-1.29-4.86.59-6.53-1.2-3.67,2.26-7.23-2-10.78-.29l-3.7,2.66v2.36c2.63,2.79,4.89,4.73,7.45,7.29,1.11,1.06,1.31,3.06,1.91,4.64.32-.3.68-.61,1-.93.48,1.3.95,2.6,1.43,3.89.93-3,4.87-2.72,5.42-5,.64-2.64,2.78-3.8,4.35-5.71,2,3,5.77,6.54,5.22,10.78-1.12,3.68-2.44,7.3-3.84,11.39.08.1.43.61.81,1.13l-.59.66c1.77,4.33-.39,9.13,1.44,13.65-2.07.79-3.79-.82-5.65-1.33s-3.59-1.75-5.43-2.7c-.9,1.61-1.36,3.25-3.69,3.3-1.56,0-3.1,1.1-5,1.82v-9.2L242.64,659c-2.37-.8-1.22-3-1.71-4.54-2.17.07-2.86-3.5-5.64-2.09l1.54,4.49-1.92.7c.31,1.6.63,3.27,1,5-2.42,1.49-4.05,4.63-7.68,4.8v2.37l2.91,1.39,5.54-3.49c.23,1.13.38,1.84.53,2.57l-6.3,7.91c.44,3.64.91,7.63,1.4,11.7L234,691.6l-.9,1,.92,1-.8.81,2.65,1.71c.71-1.54,1.74-4,3-6.26.3-.56,1.3-.76,2-1.12.48-3.11,1-6.24,1.57-10.11l1.12,2.69.89-2.12,3.62.35,2.92-2.76c1.5,1,1.23,2,.81,3.07a24.29,24.29,0,0,0-1.66,4.3c-.51,2.83-.71,5.71-1.06,8.57-.24,2,.75,4.29-1,6.1a.51.51,0,0,0,0,.48c1,.76,0,2.29.34,2.46,2,1.17-1.19,2.88.53,3.93-1.86,2-.69,4.43-.81,6.64a14.2,14.2,0,0,0,.77,6.64c.78,1.84.16,4.27.16,5.9l-3.63,6.73c.89,1.56-1.48,3.62-.06,5.15s-.62,4.67,2.82,5.37l1.56-1c.42,1.23,1,2.47,1.28,3.77.37,1.53-.66,3.33.93,4.62-.13,3.1,2.08,4.83,3.85,6.92a176.49,176.49,0,0,1,12,16.62l1.6.58-3.06,1.75,4.59,2.84c.42-.23.83-.44,1.51-.79l2,.82c2-3.42,1.42-7.21,2.44-10.69,1-3.27,1.7-6.67,3.22-9.67,2.11-4.15,3.71-8.47,5.4-12.77s4-8.32,5.89-12.55c4.06-8.7,9.59-16.68,14.27-25.17l1.41.89,2.09-1.78-2.16-.79c.07-2.68,2.79-4,3.38-6.85.44.92.73,1.54,1,2l6.47-6.46,1.2-4.11c-3.09.25-2.46,4.9-6.05,4.75,2.42-2.94,2.66-6.2,3.23-9.65l1.84-.62c-.36-2.37.76-7.21,4-6.76l-.15.15.7.81.32-.31a6.16,6.16,0,0,0-.87-.65c-.38-5-.71-10-1-15-2-2.21-.71-4.48.05-6.63a24.84,24.84,0,0,1,2.36-4l-5.11-.42c-.73-2.21.43-4.31.48-6.39,0-1.89-1-3.94-.71-6.11l3.92-1.78v-3.43h3.06c.59,1.92,1.41,4.09,1.88,6.33.21,1-.29,2.05-.51,3.36,1.91,1.58.47,5,2.83,7.06,2.07,1.85,3.46,4.47,5.27,6.91l.82-.62c.8,1,1.65,2,2.44,3.09.46.63,1.19,1.35,1.15,2-.14,2.29,1.81,2.34,3,3.19l-.76.85,1.81,4.91-1.14,1.74,1.1,1.76-3.77.42v2.51l1.77,1.87-5.94,7.26c.73,3.66,1.49,7.52,2.42,12.18l3.7,3v2.66c.89-1.32,1.79-2,1.76-2.73-.05-1.41.89-2.82,1.57-2.74,2.29.28,1.88-1.9,2.26-2.63.89-1.74.9-3.93,1.3-6.15l-3-2c.66-2.23,1.31-4.45,2-6.95l-1.72-.7a42,42,0,0,1,1.67-4.75l4,4.12c0-.07,0,.4.05.92l-.14-.15-.82.7.32.31a5.49,5.49,0,0,0,.64-.86c1.44,0,.8,1.2,1,2l-.14-.15-.82.7.32.31a5.49,5.49,0,0,0,.64-.86l2.55,1.85.84-.84c1.76,1.47,3.25,3.07,3.66,5.69-2.21.17-1.48-2.61-3.15-2.69l.15-.14-.69-.82-.32.31a5.39,5.39,0,0,0,.86.65C356.07,688.16,356.07,689.16,356.07,690.16Zm-152,23c-.76.15-1.92-.5-2,1l-3.2,3,1.32,1.51,2.88-3.51c1.49-.09.85-1.25.89-2.09l.2.19.82-.7-.32-.31A2.86,2.86,0,0,0,204.07,713.16Zm-12.41,79.91A4.73,4.73,0,0,0,194,796.3a7.28,7.28,0,0,1,1.21-4.76l-.49-.32-1.25,1-1.55-2.26c-1.48,1.21-2.46,2.26-1.55,3.95.05.09.22.12.34.17.24-.23.47-.47,1.51,1.19l-.19-.2-.82.7.32.31C191.71,795.79,191.94,795.52,191.66,793.07Zm57.5-24-.2.2.7.81.32-.31a3,3,0,0,0-.77-.54c-.42-3.66-3.59-5.64-5.73-8.21s-4-5.2-3.09-9.36L243.7,756c.79-1.65,1.59-3.31,2.42-5-1.12-2-2.23-3.92-3.53-6.21l-.85,2.23-2.36-1.11c-.59-1.21-.93-2.72-1.85-3.65-2.15-2.17-4.58-4.06-7-6.11-.57,1.14-1.1,2.22-1.58,3.19,1.32,2.81,3.14,5.35,3.66,8.12.57,3.06,3.83,4.77,3.42,8.08C240.49,760,242.54,766.69,249.16,769.05Zm63.37-29c1.28-.36,1.68-1.64,1.5-3.63l3.06-2.47c-.14-5,5-7.45,5.78-11.93.39-2.17,1.16-4.27,1.37-6.48,0-.34.49-.64.74-.95l-1.78-1.78c-.15-1.25-.3-2.4-.46-3.74-1.08,1.81-1.94,3.28-2.81,4.74-2.59,4.4-5.88,8.41-7.44,13.4-.45,1.47-1.48,2.7-1.53,4.4,0,.62-1.29,1.21-1.92,1.76l-2-1.3c-.38,2-1,3.71-.94,5.37a17.39,17.39,0,0,1-1.42,7.44,8.34,8.34,0,0,0-.21,5.69c2.2-4.18,4.13-7.84,6.19-11.72a3.63,3.63,0,0,1,1.46,1.42l-.19-.2-.82.7.32.31A7.27,7.27,0,0,1,312.53,740Zm-69,1.3c.26-.58.51-.87.49-1.14-.17-2.37-.05-4.66-.79-7.1-.83-2.72-.4-5.91-.14-8.87.38-4.53-2.08-8-3.62-12.57-.81,2.85.24,5.7-2.95,6.52-.87,3.1-3.91,5.72-1.58,9.54,1.15,1.73.48,4.41,1.48,6.33l2.42.28Zm47.78,16.91c-1,2-3.1,3.36-4.15,5.43l.89,1.26-2,2v4.75l-2.14,2c.36-2,.59-3.18.83-4.46h-1.68c0,1.85.69,4.11-.14,5.32-2,2.85-.21,4.56.71,6.8,2-1.19,3.64-1.82,4.83-3.87,2.73-4.68,6.12-9,8.5-14C293.69,763.4,294.16,759.22,291.34,758.24Zm-47.27-58.58-.63.62-2.36-2.39c.57,3.51-2.33,7.25-.56,11.36l1.75-.39-1.31-3,3.11-2ZM225,751.78c-.85-1.18-1.69-2.33-3-4.18.33,2.68-.22,4.66.75,7.27ZM322.2,648.92c1.36-1.36,2.85-2.58,2.88-4.82l-2.88.21ZM255.92,608.8a10.35,10.35,0,0,1-4,3c.24.6.34.88.57,1.46l3.41-1.43Zm24.15,168.69c0-2,0-3.4,0-4.83,0-.12-.42-.23-1-.51a10.14,10.14,0,0,1-.05,2.5,9,9,0,0,1-1.24,2ZM247.15,610.3l1.94-.36-1.94-1.29ZM263.89,780l-.06-.85-1.67.36.07.49Zm-2.82-1.16v-.33h-1v.33Zm-53.34-70.66h-.33v1h.33Zm3-3h-.33v1h.33Zm99.67-2h.33v-1h-.33Zm-75.67-4h-.33v1h.33Zm87.67-15h.33v-1h-.33Zm-184.66-81h-.34v1h.34Zm79.33-35.67v.33h1v-.33Zm-70-59.33c-.32-2.06.7-3.67,1.87-5.45-2.75-3.16-1.7-7.11-1.88-11l1.62-1.75c.44.86.87,1.69,1.49,2.87l2.13-2.93,1.65,1.51c.06-1.1.1-1.87.16-2.9l1.76-.6,1.43-6.18c-3.71-1.74-4.58-2.66-6.44-6.26a8.56,8.56,0,0,0-1.76-1.81V469.5l1.77-.53c.46-2,.95-4.16,1.5-6.58H147.5l-2.65,2.45c.33,1,.61,1.91,1,3.05a14.1,14.1,0,0,0-.78,7.87,4.43,4.43,0,0,1-.08,1.95c-.19.74-.74,1.39-.86,2.12a19.19,19.19,0,0,0,0,3.05l1.52.37c.11.15.45.4.45.65.05,2,0,4,0,6l-2.72,1.67c-1.26,2.83-1.26,2.83-1.28,6.22l-1.61.54c-.54,2-1.06,3.9-1.63,6-1.69-1.53-.36-2.65.09-3.95l-1.49-.31c.46-2.61,2.07-5.05,1.64-7.88l.83-.33-.83-.67c.35-2.52.1-5.36,1.24-7.44.82-1.49-.61-1.88-.25-2.79.29-.72.77-1.06.25-2.27-1.17-2.73.83-5.5,1.1-8.32.06-.59.56-1.13.64-1.72.38-2.85.7-5.7,1-8.56s1.92-5.21,2.17-8.13c.18-2.16,1.82-4.18,2.78-6.21-1.87-2.55-2-5.58-2-8.67-.84.49-1.37.8-1.94,1.16l.15-.14-.69-.82-.32.31a5.39,5.39,0,0,0,.86.65c-.55,1.91-2.18.48-3.65,1.13l-1.86,2.58c-2,1.81-5.24,2.07-7.89,3.9-2.23,1.54-5.48,1.61-8.57,2.4.4-.83.63-1.29,1.06-2.19l-5.91,1.11-.15-.59L123.2,444l-.82-1.08,2.6-3.14,1.14,1.39-.14-.15-.82.7.32.31a5.49,5.49,0,0,0,.64-.86l1.32,1.6,3.83-.9,13.91-9.58c.42-1.77,1-4.29,1.65-7l-2.79-.43c1.87-2.34,3.39-4.76,6.41-5.88.21.39.42.75.62,1.12a9.38,9.38,0,0,0-.95,1l-.14-.15-.82.7.32.31a5.49,5.49,0,0,0,.64-.86,9.38,9.38,0,0,1,.95-1c1.88-1.28.84-4.06,3-5l.75,1,1.25-1,2-1,.75,1,1.25-1a4.22,4.22,0,0,0,1-1.39c0-.1,0,.19,0,.47l1.95-.38-.09-.64a3.41,3.41,0,0,0-1.89.55,4.22,4.22,0,0,1-1,1.39h-2c1.53-2.79,4.1-4.13,8.21-4.43.53-.18.33-.56.19-.54a8.7,8.7,0,0,0-1.4.43c.6.17,1.2.34,1.21.11a2,2,0,0,1,.14-2.6h4.65v-2c1.71.08,3.44.21,4-2.39,0-.1,0,.19,0,.47l1.95-.38-.09-.64a3.41,3.41,0,0,0-1.89.55,11.76,11.76,0,0,1-3.62-.7l-1.75-3.85-2-.09c-.49.85-1,1.73-1.57,2.69l2.39.87L160,404.47l.48.52-2.51,2.52.65.65c-.5,0-1,0-1.55,0l.15-.14-.69-.82-.32.31a5.39,5.39,0,0,0,.86.65c-.39.6-.83,1.25-1.31,2l-1-.89-7.47,6.5,1,1c-3,.44-5.06,2.12-7.14,3.86l1.05,1.05-2,1.48-.33-.83a5.47,5.47,0,0,0-.62.87l-.14-.15-.82.7.32.31a5.49,5.49,0,0,0,.64-.86,7.16,7.16,0,0,1,.95,0v3h-2.7l-1.85,2.95-.83-.83c-2.91,2.17-5.83,4.39-8.81,6.52a4.86,4.86,0,0,1-1.81.36v-2.28l-1.71,1.39c-.68-2.26-1.32-4.41-2-6.76.34-.62.85-1.51,1.5-2.67l3.36,2.66c2.1-2.1,3.88-4.73,6.35-6.11a17.84,17.84,0,0,0,6.7-6.27c1.55-2.65,4.94-3,5.81-6l1.59-1.82a4.76,4.76,0,0,1,1.46,1.86l-.14-.15-.82.7.32.31a5.49,5.49,0,0,0,.64-.86,9.52,9.52,0,0,0,1-5.64c1.25-.91,1.93-2.55,4.14-2.52,1.24,0,2-1.38,1.79-3.27,0-.1,0,.19,0,.47l1.95-.38-.09-.64a3.41,3.41,0,0,0-1.89.55c-1.83-.19-2.36,1.72-3.31,2.15l-5.78-2c.21,1.67.2,2.89-1,3.88-1.61,1.62-2.63,4.05-3.83,6,1.29,1,3.21-.76,3.89,1.36h-9l3.4-1.63c-2.91-.64-5.31-.69-7.73.79L127.49,407c-.9-3.24-1.77-6.38-2.69-9.68h-3.93c-1.86-1.55-3.39-3.16-3.88-5.75a10,10,0,0,0-2.16-4.07c-2.12-2.67-4.66-5-6.61-7.79-2.35-3.32-4.6-6.78-4.19-11.25a57.58,57.58,0,0,0,0-8c-.2-3.66,1.15-6.77,3-10.08,0-2.09.18-4.46-1-6.77-2.21-4.51-.7-9,.43-13.45.62-2.42,1.54-4.92,1.43-7.35-.27-5.48,2.22-9.74,4.4-14.47h15c1.28-1.81,3.27-2.43,4.44-4.26,1-1.64,3.16-2.61,4.71-3.8,4.24-.66,8.58.91,12.64-1.12,4.09.82,7.78-1.71,11.84-1.35l-1.74.61c1,2.93,3.71,2,5.25,1.56a49,49,0,0,1,9.71-1.92l6.49-3.24,1.59-8.73c.9.17,2,.08,2.62.56,1.2.86,2,2.25,3.26,3.06a14.3,14.3,0,0,0,3.61,1.18c.12-.1.47-.67.86-.69a46.92,46.92,0,0,0,6.62-.88c4.23-.9,8.7-.67,13-1.21,4.85-.6,9.69-1,14.58-1.1,2-.05,3.93-1.59,6-2.27,8.8-3.07,16.18-4.28,24.33,1.17,2.92,1.69,5.28,5,8.43,6.17,2.81.59,5.7.8,8.72,1.19l3.27,2.35c1,1.63,2.05,3.36,3.47,5.67.45,2.3-1.15,4.86-2.22,7.36-1.47,3.4-3.65,6.42-4.28,10.26a20.81,20.81,0,0,0-.55,3.22c0,3.83-.2,7.67,0,11.49.4,13.08-6.2,24.31-11.09,36.08-2.46.68-3.55,2.54-4,5.07-.52,3.08-1.26,6.13-2,9.17a14.41,14.41,0,0,1-1.08,2.33l1.21,1.69c-3.21,3,1,6.41-.29,9.87l-1.57,1.57-4.08-1.5c.34-.87.63-1.64.92-2.41l-.67-.33L249.56,398c-.46-.58-1-1.23-1.49-1.87v-4.29l-2.95-2.08v-4.18l1.95-1.95c0-3,0-6.13,0-9.27a10.73,10.73,0,0,1,2.27-7.05c.45-.57.91-1.88.67-2.1-1.48-1.36.19-2.5.1-3.73a6,6,0,0,1,.84-4.16c.37-.54,1.07-2.59-.87-3.19-.51-2.44,1.45-4.08,2-6.17,1.09-4.38,1.74-8.9,3.12-13.19,1-3.2.79-6.29.21-9.69l-2.87,5-.81-.75L248,331.79c.86,4.67-2.07,8.74-2.48,13.33-.32,3.51-3.65,6.6-1.52,10.55.19.34-.3,1.19-.65,1.66-1.49,2-1.54,4.62-4,6.38-2.23,1.58-1.22,5.1-1.29,8.11l-4.23,3.33c-.84,4-1.77,8.43-2.74,13,.22,1.75,1.92,2.63,3,4h-1.84c0,1.07-.53,2.42-.06,3.2,1.8,2.64.61,4.56-.76,7.21l-2.57-2c2.14-2.18-.41-5,1.3-7.41-.67-1-1.94-2-1.94-3,0-1.66-1.14-2.25-2.13-3.57,0-2.44-.15-5.24,0-8,.19-2.95-.63-5.61-1.46-8.36a41.87,41.87,0,0,1-.9-6c-.45,0-1.07,0-1.73,0l.15-.14-.69-.82-.32.31a5.39,5.39,0,0,0,.86.65,83.23,83.23,0,0,0,.13,8.93c.37,3-.51,5.91-1.34,8.5-1.11,3.47-.4,6.76-.6,10.12,0,.31.51.65,1.54,1.86l-3.32-1.26c-.36.69-.78,1.52-1.24,2.4l1,1.11c-.22.49-.48,1.05-.7,1.51l.78,5c.63,2.62,2.82,4.34,4.06,6.55,1.77-1.87,3.19-3.31,5.19-5.19l.74,2.16,3.44-2.8c.34,2.6.65,4.93,1,7.89l-1.56.84-.78-.71-.5,1.66c5.12,1.05,9.46,3.74,14.08,5.8,3.23,1.45,6.6,2.6,9.92,3.81,4,1.47,8.46,1.94,12.38,4.45l-1.09,1.85,5.61,2.2c.1-.31.31-.89.54-1.55,4.93,1.69,9.51,4,14.29,6,1.67.63,3.52,1.48,3.92,3.74.08.43,1,.71,2.71,1.64.53-.18.33-.56.19-.54a8.7,8.7,0,0,0-1.4.43c.6.17,1.2.34,1.21.11-1.21-1.07-1.21-1.57-1.21-2.42,1.68,0,3.38-.77,5,.39,3.06,2.15,6.71,3.11,9.92,4.94a9.39,9.39,0,0,1,1.29,1.12L306,447l6,3.38a7.84,7.84,0,0,0,.88,4.61c-1.64,2.33-3.46,4.88-5.51,7.77l-24.22-14,1.14-2.25c-3.58,1-4.83.62-10.29-3.31l.83-.33-.83-.67a2.73,2.73,0,0,0-2.36-2.06,36,36,0,0,1-5-1.91,16.1,16.1,0,0,1-10.89-2.86,22.23,22.23,0,0,1,9.61-3.55c-1.75-1.33-3.2-2.42-4.79-3.64h-3.71l-3.38-4.26c-1.39.46-3,.59-3.95,1.44s-.86,2.49-3.14,1.65L244,423.53l-1.67,2.23.93,1.13-3,.43v2.38l5.63,2.23,6.18,1.23v1.44a40.14,40.14,0,0,0-6.36-.38c-3,.27-5.08-1.45-7.5-2.49-.26-.11-.25-.85-.41-1.44h-2.18c-3.29-1.81-6-3.41-8.74-4.77-2.4-1.17-4.62-.14-7,1.2.26.52.39,1.21.81,1.54,4.19,3.29,5,8.22,6.35,12.88,1.89,6.44.61,13,1,19.56.13,2,.45,4.06.76,6.86l-3,4.44c.36,2,.77,4.28,1.22,6.79,4.05,2.35,3.79,6.87,5.17,10.6-3.15,2.1-3.22,2.31-3.18,8.95l2.62,5.08c-.47,2.26-.93,4.49-1.46,7,1.08,2,.72,4.32.31,7-.52,3.23-3.27,3.62-4.75,5.49-2-1.28-4.25-.5-6.43-.82.32,1.69.59,3.14.9,4.8l-3.37.54c.45,1.19.84,2.25,1.32,3.53-.79.08-1.38.33-1.68.13-1.32-.87-2.55-1.86-3.79-2.78-4.75-.1-9.31-1.41-14.07-1.31-2,0-4-.86-6.2.08-.8.35-2-.28-3.33-.5L187.7,528c-.21-.15-.62-.33-.6-.45.32-2.86.69-5.71,1.12-9.1l2.82-2.32,2-.1v-2.42l-2-.93v-1.59l1.55.88.88-1.83h2.27c.19,1,.39,2,.73,3.7l2.08-5.65.47.07v4.77h2.15c-.26-.88-.45-1.55-.79-2.68.5-.81,1.24-2.05,2-3.31l1.7,1.41a14.19,14.19,0,0,1,1.93-9l-2.33-1.5-.57.49.93,1.47a10.94,10.94,0,0,1-1.57.11c-.34-1.78-1.75-2.2-3.18-2.61-.2.58-.41,1.16-.61,1.75-2-1.19-1.85-2.91-1.43-4.9l2.46-.17c.19-.54.4-1.12.64-1.81h2.36l.9,2.33c.24-1,.4-1.61.57-2.27l.52.56c.91-4.65,1.81-9.3,2.64-13.6-1.66-2.33-2.29-3.32-4.49-4.89l1.11-3.56a20.68,20.68,0,0,0-2.21-2.67c.11-2.32.79-4.7-.47-6.76l1.36-1.36,2.49,3.76c-.68-5.42-2.51-9.56-4.69-13.92l-2.69,4.47c3.25,2.43.05,4.3-.42,6.15l3.77,3-.82.93a18.94,18.94,0,0,0,1.47,3.69,21.08,21.08,0,0,1-2.53,2.94h-1.71c-1.14-3.4-2.52-6.84-3.41-10.4s1.24-7.31.91-11.24l-4.19,1-2.35,3.08c-2.53-5.72.12-9.42,3.54-13,.2-2.12-.06-4.29.86-6.55.62-1.51-.35-3.67-.7-6.17,1.25-2.27,3.77-4.68,3.94-8.26,2.57-2.69,5.22-5.45,6.79-9.1-2.64-1.74.48-3.59.21-5.52a12.28,12.28,0,0,1,.56-5.92l1-2.75,8.23,8.13c2.57-1.87-.11-3.3.13-4.82-1.22-.82-2.68-1-3.1-3.13-.76-3.77-2.74-7.25-3.21-11.15,0-.25-.46-.45-.8-.77,2.47-1.17,2.29-3.73,3.05-5.73.44-1.17.08-2.64.08-4s.54-3.16-.13-3.89c-1-1.11-.12-2.05-.41-3a9.82,9.82,0,0,1,.17-7.07c.62-1.39.25-3.22.38-4.84s.32-3.05.5-4.67a27.38,27.38,0,0,0-3.8-2.93,39.89,39.89,0,0,0-5.31-2l-1.65.93-1.13-1.06L191,351.92l3.34.49-1.08,2.39c.24.08.68.41,1,.32a55.9,55.9,0,0,1,8.21-2.17c-.71.9-.88,1.35-1.2,1.49a45.24,45.24,0,0,0-5.08,2.2,40.92,40.92,0,0,0-4.49,3.6c-1.16-1.6-2.73-1-3.82-1L184,361.82c.39,4,4.31,8,.62,12.24l-1.52.38c.29.32.49.7.65.69a20.16,20.16,0,0,0,5.15-.78c2.4-.78,5.23-.19,7.48-.19.86,1.16,1.46,2.74,2.17,2.79,2.68.21,4,1.61,4.87,3.94.09.25.85.27,1.52.45.37,2.13.52,4.3-1,6.1l1.21,1.32c-.89,2.18-1,4.74-3.25,6a26.76,26.76,0,0,1-17,.09l-2.23,2.1,1.48,1.2c-.14.71.4,1.57-.74,2-.71.29-1.23,1-2.3,2h-2.8v2.43l-5.62,2,2.71.94c-1.76.9-4.44.47-4.21,3.45,2.3-1.45,4.68-.69,7-.93l-.15.15.7.81.32-.31a6.16,6.16,0,0,0-.87-.65l1.84-1.5v-3.17c1.39-.19,2.9,0,3.81-.63,1.13-.8,2.17-.56,3.26-.63,1.29-.07,2.58,0,4.55,0-1.81,1.71-2.72,2.43-3.25,4.4-1.84.68-3.45,1.22-5,1.87-2.18.91-4.31,2-6.78,1.72a15.34,15.34,0,0,0-6.1,1c-3.1.94-6.28,1.59-9.41,2.36.53,2.57,2,4.19,3.62,5.79s3.75,2.78,2.61,5.58c3.1,4.14,4.38,9.18,6.83,14.34a44.89,44.89,0,0,0,.82,8.94c.54,2.18.94,4.88-.48,7.19-1.22,2,.82,4.65-1.35,6.43v9.55l-3,4.38c-.48,3.61,2.23,7.35.81,10.84-1.31,3.22-1.46,6.64-2.73,9.85s-2.19,6.79-4.43,9.72h-2l-2-2.91h-4.49l-3.2,5.67a15.34,15.34,0,0,1,.58-4.9c-.19-.53-.57-.33-.55-.19a9.13,9.13,0,0,0,.43,1.41c.18-.61.35-1.21.12-1.22-.91,1.22-1.25,1.22-1.58,1.22a14.31,14.31,0,0,1,.58-4.24c-.2-.51-.57-.31-.55-.17a9.13,9.13,0,0,0,.43,1.41c.18-.61.35-1.21.12-1.24A17,17,0,0,1,147.07,508.16Zm82-183v-1l2.88-2,6.25,2.37v2.84L244,323.2l3.66,1.21a4.94,4.94,0,0,0,2.26,1.73l-.91,0,.38,2.95.67-.06a4.16,4.16,0,0,0-.94-2.9c1.67-3.18,4.48-4.32,8.64-3.93-3.69-2.58-6.75-2.71-9.93-1a18.51,18.51,0,0,0-11.93-4.17l-6.59-3.39c-.25-.94-.43-1.63-.61-2.33l-.6.13c.06,1.55.13,3.1.21,4.89l1.37-1.2c.16.33.49.7.41.87-.34.7-.81,1.35-1.29,2.13H223c-.4,1.18-.79,2.32-1.25,3.69l4.43,2.29,2.9-2.92v2.91l-.83.32c.28.23.55.45.83-.23v4.3l-3.29,3.62c2.31,3.11,5.14,3.29,8.68,2.76A23.89,23.89,0,0,0,229.07,325.16Zm-83.22,7.63,5.15,1.55,1.44,5.72h2.69c-.47-3.35-.93-6.59-1.38-9.77l-4-.46a7,7,0,0,1,.8-1.62c.16-.16.63,0,.89,0l4.38-7.93,1-7.09A29.74,29.74,0,0,1,146.32,312c-2.09,3.16-4.52,6.14-6.15,9.51s-4.08,6.16-5.89,9.36l.9.91c-1.66,1.24-3.61,2.2-4.82,3.75s-3.28,3.17-3.26,5.59c0,2-2.1,3.77-.37,6.34l2.49.91c4-3,4.27-8,7.28-11.2h4.79l3.34,2.35Zm60.77-26.58c-6-.57-11.59,2-17.71,2.1a10.53,10.53,0,0,1-2.63,5.29l-6.23-4.46-2.3.18c.41,1.39.71,2.42,1,3.54-1.44,1.71,0,4.2-1.63,6.06a3.13,3.13,0,0,0,.12,2.83,5.22,5.22,0,0,1,0,5.86c-.57,1-.71,3.07-.07,3.79,1.29,1.47.44,3.16,1.24,4.81,1.81-.35,3.76-.39,5.41-1.12,3.51-1.56,7.63-1.66,10.56-4.69,2-2.08,5-2.38,7.66-3.14,3.81-1,7.29,4.11,8.86,8V324.78c-.37-.77-.69-1.43-1-2.11l2.61-1.22L210,318.37v-5l-2.1-1.85v-4.07Zm-49.23,76.73c2.07,1.58,4.67,1.24,7.21,1.19l1-.95c1.24-2.42-.6-4.82,1.52-6.53-.68-2.66,1.78-5.18.84-7.5-.79-1.92-.57-3.75-.91-5.44a2.85,2.85,0,0,0-3.87-1.43c-1.46.83-2.7.25-4,.37-1.57.15-3.12.48-5,.79l-1.52,2.6-1.89-2.9c-2.31,1.6-3.46,4.06-5.81,5.84l11.24,5.77C156.57,377.45,157,380.11,157.39,382.94Zm-17.5-7.11a18,18,0,0,1,5.42,3.71c-.65-2.1-1.05-3.42-1.76-5.78l-2.43-1.89,1.21-2-3.4-3.13-2.8,3c-.27,2.57,1.48,3.21,2.43,4.36l1.33-1.08Zm83-61.13,4.06,1.7v-3.95c-1.84-1.15-2.26-4.37-5.41-4.27C220.12,310.54,221.75,312.33,222.86,314.7ZM216,446.34l1.84-.37V435.89C215.27,439.13,216.3,442.55,216,446.34ZM171.48,326.21a19.66,19.66,0,0,0,2.7-5.67c-2-.89-3.29-.29-4.09,1.41ZM147,386.73l4.07,1.64c-.94-3.16-1-3.15-3.88-2.86C147.17,385.81,147.12,386.12,147,386.73Zm80.51-47.81-1.12,1.71,1,2.68c.78-.77,1.13-1.12,1.48-1.48Zm2.79,68.24h.5v-2h-.5Zm60.93,41.17.06.85,1.67-.36-.07-.49Zm-54-22c0,.28.07.57.11.86l1.62-.39-.07-.47Zm-90.49-91.17h-.34v1h.34Zm82.66,28h.33v-1h-.33Zm1.33,27h-.33v1h.33Zm33.34,37.66v-.33h-1v.33Zm-98.33-29.66h-.34v1h.34Zm38.33,69.33v.33h1v-.33Zm79.66-31.33h-.33v1h.33Zm-79.33,61h.33v-1h-.33Zm57.09,388.21c2.73-3,4.64-1.85,6.71-.64l-1.81.6-1.1,6.44,1.56.8c.73,1.44.26,4.31,3.14,5,.47,1.8.47,4,1.52,5.33,1.63,2.08-.68,3.26-.47,4.9a1.56,1.56,0,0,1-.75,1.34l-.42-4-.66,0-.24,4.74-.52.08a15.09,15.09,0,0,0-1.15-4.31l.95-2.5a33.06,33.06,0,0,1-5.72-10.88c.1,2.11-2,3.93-.58,6.68l-1.82,1.09c-.08,4.41-1,7.27-2.93,9.49l1.08,1.72c-2,1.36-2.18,3.85-3.47,6.44l1.85.57c.4,2.55.62,3.92.92,5.81l-1.5.71v7.82c-4,1.58-2.73,5.17-3.1,8.34H250.4l-.38-1.16c-4-1.29-7.76-2.53-11.54-3.77l-.43.62c2.14,2.14,4.61,4.05,6.31,6.49a10.43,10.43,0,0,0,4.31,3.93c.31-.65.64-1.31,1.08-2.2,2.21,1.21,3.48,3.22,5.24,4.66-1.56,1.63-2.21,4.14-5.11,4.69l-1.35-1-1.08,1-.57-1.6-5.12.8-8.41-5.75a4.3,4.3,0,0,1,5.11,1.49c1.07,1.29,2.33,1,3.65,1l-.15.15.7.81.32-.31a6.16,6.16,0,0,0-.87-.65c-1.81-1.49-3.58-3-5.65-4.84h-3.84c-.9-1,.31-1.09.43-1.72l-4.94-3.49L213,948.73l4,.63c0,.56,0,1.18,0,2.18,0,.1,0-.18,0-.47l-2,.38.08.65a3.51,3.51,0,0,0,1.9-.56c1.68-.87,2.21.51,3.85,1.79l-3.91,2,.67.67-9.4,1.46c3.86,8.3-.76,15.59-6.17,21.7l-.14-.15-.82.7.32.31a5.49,5.49,0,0,0,.64-.86c1.89.08,3.47-1.69,5.5-1.1,2.92-2.53,4.93,0,7.17,1.11.09,3-3.95,2.92-3.92,5.49l-6.41,2.58L202.18,992l1.39,1,5.52-1.11a12,12,0,0,1-4.93,3.64v1.79l5.73-1.91.29,1.51c-4.12.36-7.3,3.73-12.22,3.15A3.92,3.92,0,0,0,199.3,997l3.64,1.35c-.22-2.46-2.85-2.87-4.28-2.1-5.47,2.73-11.42,3.19-17.28,4.12-.26,0-.47.45-.89.87l-1-1.64-5.24-1.09-8.52,1,2.54,1.18-2.07.72v2.5l3.87,1.22c-.29,1.67-3.26,2.26-1.65,4.8h3.17l1.18,3.79-1.92,1-5-4.84-1.7,1.7,1.12,1.23-3.74.74,2.49.88c-.68,1.18-1.35,2.34-2,3.54l-2.48.24c-.52,1.11-1.05,2.22-1.77,3.73-3.4,1.39-7.13,3.21-10.94,4.4-1.18-1.25.54-1.08-.44-2.54l-.2-.22,2.1-2.11-3.14-1.91,4.12-.67c-.33-.86-.62-1.63-.94-2.49,1.72-2.48,5.77-.38,7.62-4.14V1010l-3.32,1.32-1.74-2.28h-8.08c.54-1,.74-1.81,1.26-2.19,1.6-1.16,3.33-2.15,5-3.21-1.7-1.55-2.91.54-4.41.62a23,23,0,0,0-4.11.95l-6.56-2.58c.52-1.81,2.23-1.81,3.53-2.44,5.07-2.45,10.67-3.18,15.92-5s10.74-3.82,15.93-5.68l3.32.95,1.55,2.52c.33-.07.66,0,.78-.18,1.2-1.49,2.37-3,3.55-4.52l2.34,3.59v-4.56a17.21,17.21,0,0,1-7.42-7.19c-1.38-2-3.93-3.54-5.95-4.89-1.31-.76-2.66,1.34-4.08.15-1.14,1.5-2.78.48-4.14.85-1.19.32-2.33.82-3.9,1.39-.17-1.6.12-3.55-.5-3.91-1.61-.93.66-1.76-.28-2.73-.44-.46.39-2.14.68-3.46l-2.9-.51c-.22-.61-.42-1.19-.73-2.05l-5.26,2.74,2.52.68V971l-3.81,3.17c-1.79-1.74-4-2.07-6.58-2l-2.3,2.68,2.86,1.84-2.46,2.42-.7-.63-3.2.79-1.61-1.6.91-1a28.94,28.94,0,0,1-6.87-3.75c.27-1.68-.93-3.63,1-5.28-1-.92-1.91-1.84-2.91-2.82v-4.2L117.33,956c-.76-2.72-1.12-4.67-3.75-6-5.38-2.88-9.75-7.44-15.23-10.28-.86-4.48-1.76-9.14-2.66-13.84l1.79-1.28c1.72-3.5-.94-6.09-.47-9-1.58-1.07-.9-2.71-.91-4.1-.06-8.32.12-16.64-.08-25-.16-6.34,1.1-10.8,6.11-15l5.21-1.25c3.48,1.59,3.89,1.48,7-1.93,1.95-2.19,4.73-2.07,7.4-2.92l4.75,1.84c2-3.75,3.43-8,7.72-10.18,2.66-1.33,5.26-2.81,8.27-2.89,1.69,0,3.66-.84,5,.81l4.92-2.54a10.52,10.52,0,0,0,2.51.64,99.73,99.73,0,0,0,12.47-.07c3.53-.38,7-1.13,10.58-.93,4-2,11.38-3.78,15.18-2.8a6.26,6.26,0,0,0,3.22-.15,59.45,59.45,0,0,1,6.07-1c3.45-.19,6.93,0,10.38,0l.09-.61c-1.56-.59-3.09,0-4.4-1.32-.48-.41-1.6-.07-2.43-.07.26-.34.51-.94.79-1,1.91-.12,3.74-.05,5.62-1,1.64-.79,3.69-.66,5.52-1.12s3.49-1.28,5.29-1.67a167.6,167.6,0,0,0,28.1-9.29c5.87-2.18,11.87-3.58,18.22-3.06,1.37.11,3.06.77,3.91-1l10.72,3.16c1.63,1.14,3.75,1.9,4.61,3.4,1,1.77,2,3.15,4,3.74l1.52,6.11c-1.45,1.16-2.79,2.23-4.23,3.4l3.74.41.23,1.36-2.2,1,2.28.83c-.44,1.1-.88,2.19-1.22,3-4.84,2.23-9.53,3.63-14.36,5.6-3.67,1.64-4.38,3-4.56,7.87-2.21,1.72-5.63,3.33-6.93,6.13-.84,2-2.7,3.57-2.73,6.06a1.92,1.92,0,0,1-2,2.13c-.09,0-.23,1.16-.93,3,.19.53.57.33.55.19a7.83,7.83,0,0,0-.44-1.4C261.43,884.76,261.26,885.36,261.49,885.37ZM161,967.07l.2.19.82-.7-.32-.31a1.62,1.62,0,0,0-.49,1l-.19-.2-.82.7.32.31A1.56,1.56,0,0,0,161,967.07Zm-43.44-42.33c.34-.89.64-1.69.94-2.49l.67.49c-.1-1.54-.19-3.08-.29-4.62l-.79-.24-2,3.2c.51,1.3.85,2.15-.17,5.55.79-.72,1.16-.93,1.14-1.07a7.83,7.83,0,0,0-.44-1.4C116.43,924.76,116.26,925.36,117.52,924.74Zm43.42,8.81c-4,2.39-4.57,2.62-8.05,3l1.74,3.9c.33-.94.54-1.51.75-2.09,2.66.5.78,4.46,3.75,4.82a35,35,0,0,1,12.3-3.66,14.9,14.9,0,0,1,8.1,1.53c.83.37,2.35.52,2.87,0,1.62-1.5,3.44-.65,5.14-.94,5.27-.39,10.28-2.45,15.63-2,.63.07,1.53.69,1.83.45,1.58-1.27,2.66-.06,3.92.51.22.1.58-.13,1-.23l.29-1.33,7.39-2.39.92.8,2.59-1.33c0-.67,0-1.34,0-2a10.44,10.44,0,0,1-5.84-6.24l1.75-.59-1.34-2.58a8.9,8.9,0,0,0-5.53.85,14.75,14.75,0,0,1-5.62,2c-2,.21-3.43,1.69-5.17,2-2.07.36-4.1.43-5.78,2.15-2.76-.22-5.84.69-8.18-1.43.22-.61.38-1,.87-2.32l-8.42,4.68C172.6,931.78,166.8,932.63,160.94,933.55Zm-8-49.39c1,0,2.53,0,4,0s2.95.89,4.07.83a41.15,41.15,0,0,0,9.28-1.52,22.72,22.72,0,0,1,7.45-1.38c3.2.13,6.29-1.49,9.57-.92,1.86-1.95,4.4-.38,6.47-1.25,5.45-2.49,11.35-1.59,17.17-1.75v-7.65l-1.31-1.15c-3.9.38-5.8,4-9.66,3.78-.42-3.4-.81-6.52-1.06-8.52l3.74-4.89c-7.25,2.74-13.68,3.74-21.2,4.41-1.16.08-2.6-.42-3.44.1-2.16,1.34-4.42.69-6.62.93a46,46,0,0,0-7.06,1c-3.77,1-7.8.72-11.44,2.51a38.32,38.32,0,0,1-7,2.39c-1.21.32-2.46,0-3.58,1.11-.84.86-2.3,1.1-4.45,2,4.89,2.21,4.29,6.65,6.16,9.84-1.56,3.42-1.5,3.82,1.13,6.26Zm36.75,9.26c-2.19-2.63-4.65-3.1-7.14-3.23-2.78-.15-5.57,0-8.28,0l-2.05,3.46V901c2.74.88,3.53-.9,4.16-2.51l4.71-2.33h4.43Zm-.83,99.39c3.48,1.35,3.68,1.21,3.87-1.87Zm-29.75-44.87,1.48.3c.46-1,.89-2,1.49-3.33C160.05,945.39,158.92,946,159.12,947.94Zm52.1,6.39.09.88,2.62-.37-.05-.51Zm1.14-37.58c1.51.31,1.51.31,1.31-2.11ZM261.24,891l.89-.09-.38-2.62-.51.06Zm-95.33,82-.11-.86-1.63.39.08.47Zm12-4-.06-.85-1.67.36.07.49Zm37.34-15.65.1.86,1.63-.39-.07-.47Zm-6.33-38-.87.11.39,1.63.48-.08Zm30.5-28.15h.33v-1h-.33Zm-52,40h.33v-1h-.33Zm-72.33.33v.33h1v-.33Zm139,3v.33h1v-.33Zm-97.33,12.67h-.34v1h.34Zm57.33,9.66v-.33h-1v.33Zm-54.67,64.34h.34v-1h-.34Zm-96.28,41c2.23,0,4.51,0,6.79,0-4,1.18-6.22,4.27-8.6,7.39l-1.91-1.43-1.76,2.7a29.57,29.57,0,0,0-4.74,1.39,32.79,32.79,0,0,0-4.32,2.92H44.44c-1.69,3.57-4.75,5.41-9,6.19-1.35.59-1.85,3.27-4.34,2.84.2-.71.36-1.42.61-2.11.41-1.11,1.16-2.26-.61-2.89v-2.57l-5.43,3,1.43,2.22c.11,1.44-2.79,2.87,0,4.31-.87,1.92-3.41,1.33-4.48,3h-13c-1.42-1.24-.87-3.83-3.42-4.55-1.07-.3-1.89-2.08-2.47-3.35a30.93,30.93,0,0,0-2.59-4.93c-1.76-2.57-1.4-4.92.62-7.33,1.87-2.23,3.81-4.4,5.64-6.66,2.42-3,6.12-3.73,9.39-5a14.54,14.54,0,0,1,7-1.16,60.2,60.2,0,0,0,6.44.05c4.13-2.15,8.21-4.31,11.23-7.94.9-1.09,1.59-2.36,2.49-3.46,3.16-4,8.05-7.42,13.92-10.07l11.7-2.57c.8-2.47,2.56.42,3.91-.72,1.08-.9,3-.69,4.42-1.29s3.09-.66,4.56-1.07c3.24-.91,7-.87,9.33-4,.48-.64,1.65-.75,3.31-1.43l2.68-2.93A87.64,87.64,0,0,0,107,1013c4.25-2,8.36-4.82,13.44-5,1.82-.06,3.83-1.62,5.53-.8,2.39,1.15,4.74.75,7.13.9,0,.33,0,.66,0,1.38,0,.1,0-.18,0-.47l-2,.38.08.65a3.51,3.51,0,0,0,1.9-.56c1.83-.75,3.95.5,5.36-1.14,1.91.36,2.89,1.69,3.48,3.43l-1.89.64,3.36,2.19-8,5.07.9,1.75-5.22,2.87c.6,1.67,2.87-.27,3.09,1.85l-.14-.15-.82.7.32.31a5.49,5.49,0,0,0,.64-.86c.57,0,1.19,0,2.06,0-1.27,2.08-2.57,3.35-4.74,3-.37,1.26-.7,2.41-1.08,3.74l.84.83c.28.13.56.37.84.36,2.29-.11,4.48.06,6.26,1.75,3.13-.28,5.2,1.93,7.6,3.3,1.9,1.09,3.62,2.5,5.45,3.71a6.76,6.76,0,0,0,2,.36L150,1038l3.86,1.36c.84,1.31-.71,3.68,1.64,4.57,1.51-1.34,1.76-3.76,4-4.81,1.83-.84,2.11-3.87,4.94-3.82l1.27.78,1.06-1.06,4,4.85,4.91-4.66h-2.55c1-2.25,2.92-.42,4.15-1,2.93-2.46,5.84-4.79,8.6-7.28,2.33-2.11,5.09-1.65,6.71-1.69l8.73-4.12h4.68c0-.63.05-1.08.09-2l-1.61,1.14-.41-1.29c.88-1.34,2-1,4.89,1.28,2.8-1,5.52-2.43,8.67-2,2.89.38,5.85-.65,8.73.65a8.81,8.81,0,0,0,3.85.33,12.89,12.89,0,0,1,6.57,1.06c3.12,1.57,6.4.7,9.78,1,1,1,2.56,1.74,2.66,3.57l3.86,1.77c-.21.26-.53.49-.56.74-.22,2.1-.38,4.22-.51,5.69l-3.43,3.32-4-2.43c-.32.9-.68,1.89-.9,2.49-3.95-1.55-3.95-1.55-6.62.27.56,2.32-1.1,5.08,1.2,7.27l3.85-1v2.25a8.68,8.68,0,0,1-1.23,1.67,6.13,6.13,0,0,1-1.75.66c-.2,1.68,2.37,3.15.3,4.84.34,2.18-3.57,1.24-2.92,3.87-.6-.87-1.2-1.74-2-2.92-.69,1.11-2.46,1.46-2.43,3.62l3.26-1c-.76,3.19-3.1,4.36-4.64,6.1s-3.27,3.32-5,5.07l-6.13-3c-2.3-.29-5.77.72-9.17-.55l-6.3,2.77,1.22,1.85-1.66,2-4.45-4.45.84-1.08c-3.31-2.21-6.59-2.06-10.6.4a8.91,8.91,0,0,1,7.64,3.62v5.94c4.48,1.78,5.44,5.41,4.94,10.24l-2.95,2c-.58,1.74.67,3.56-.86,5-.87.79-.45,2.91-1.27,3.86-1.06,1.24-.79,2.45-.8,3.7-.05,4.83-.14,9.66,0,14.48.11,3.65-1.16,6.77-2.9,9.88l.66.76c-.68,1.84-1.4,3.78-2.31,6.22l-2-2.31-1.35.94-1.72-1.19a3.56,3.56,0,0,1-.38-1,23,23,0,0,1,.85-6.12c1-3.64-.45-7.24-2.08-10.53a42.64,42.64,0,0,1-3.83-10.91,24,24,0,0,0-1.85-4.36c1.52-3,.93-6.44.64-9.8a9.13,9.13,0,0,0-.76-2.67c-.61-1.41-1.06-3.64-2.09-4-2.94-1-3-3.76-4.49-5.64l-7.63,2.64-7-2.35c-.13-.27-.63-1.39-1.37-3l-4.3-2.21c-3.05.58-5.6-1-8.12-3.37-1.92-1.8-4.39-3.14-6.41-4.8-3.63-3-8.41-4.69-10.63-9.32a2.78,2.78,0,0,0-2.83-1.6c-.64,0-1.34-.73-2.13-1.21,2-2.67,4.41-4.17,8-3.61-.25-5.59-4.1-7.83-7.82-10.14l-2.88,1.12-.33-.67,3-2-2-1.43h-6.34c.94-1.21,2.58-1,2.55-2.59,0-1.11.85-2.24,1.25-3.21a12.1,12.1,0,0,0,1.67.79c.21.07.54-.26.84-.42l-1-1.14,2-.7-.8-1.09c1.21-3,5-2.74,7.14-5.63-2.92.76-5.66.93-7.77,2.18a17.5,17.5,0,0,1-6.19,2c-3.35.62-6.21,2.66-9.56,3.85l-1.5-1c-.13.49-.25.93-.46,1.66-3.14,1.38-6.39,3.32-9.91,4.2-3.69.91-6.37,4-10.3,4.13-3.55,2.55-8.2,3.31-11.15,6.93a6.33,6.33,0,0,1-3.12,2,2.85,2.85,0,0,0-2.36,2.08c-.76.15-1.92-.5-1.95,1l-.14-.15-.82.7.32.31a5.49,5.49,0,0,0,.64-.86c.71-.19,1.86.45,1.95-1l5.57-2c.33,2.1-1.88,1.5-2.5,2.45l1.1,1.51c-2.31,1.9-2.8,2.91-2.37,4.84l-1.71.35c1,2.47-2.44,3.38-2,5.88l-.14-.15-.82.7.32.31A5.49,5.49,0,0,0,63.12,1058.2Zm-22,1c.33-.34.66-.67,1-1,1.39.18,2.33-.37,3-2h-2c.41-.34.82-1,1.23-1a2.57,2.57,0,0,0,2.77-2l.83-.33-.83-.67v-2h.36l4.1-4.11c-1.44.86-3,1.78-4.46,2.64v1.47a8.1,8.1,0,0,0-2.18.72c-2.46,1.69-4.68,3.83-7.33,5.13s-5.57,1.72-8.08,2.44c-2.14,3.49-3,7.45-6.23,10.06-1.35,1.1-1.86,2.7-2.37,4.84a60.7,60.7,0,0,0,6.14-4.24c2.54-2.25,6.28-3.19,7.54-6.9.35-1,1.45-1.21,2.51-1l-.87,1.8,1.42.25,2.45-3C40.4,1059.82,40.74,1059.49,41.07,1059.16Zm131.09-14.11-.2.2.7.81.32-.31a2.91,2.91,0,0,0-.91-.59,4,4,0,0,0-.11-1.09l.2.19.82-.7-.32-.31a2.86,2.86,0,0,0-.59.91l-.83.32A2.8,2.8,0,0,0,172.16,1045.05Zm24.91,8.11h7.11l6.22-3.16,2.87-3.86c-.27-1.58-.6-3.44-1-5.52,1.53-1.71.53-4,.72-6.19l-8.64-.89c-3.08.86-7.16,1.37-8.42,6.29l3.54,2.78-6.2,1.51c-.23-1.18-.4-2.09-.62-3.26l-13,3.22-1.4-.95-4.15,1.53,1,1.3c-2,2.84-.77,6-1.15,8.85,4.26,3.1,8.89,2.24,13.35,2.32.22,0,.46-.37.92-.77l-2.33-3.1c.76-1.69,1.54-3.42,2.19-4.88l3.84,3.51c.1.79.2,1.55.24,1.86l4.83,2.31ZM226,1037.24c-2.12-.35-4.05.69-5.82-1.5l-2.93,2.94-2.35-.8c.28,1.47.39,2.36.64,3.22.47,1.62,1.33,3.19,1.47,4.83.27,3,1.82,4.9,4.63,6.74.77-1.68,1.39-3,1.93-4.24l2.43-1.5ZM6.27,1070.71c-.32,2.22-.54,3.79-.76,5.32h5.41c.09-.89.16-1.68.22-2.29,1-.71,2-1.37,3-2.09a20.53,20.53,0,0,1-5.41-5.34L4,1068.22c.13,1.52.24,2.7.36,4.07Zm41.55-6.55h-.5v2h.5Zm85.08-43.85-.87.11.39,1.63.48-.08Zm-32.16,2.85h-.34v1h.34Zm-2.34,2h.34v-1H98.4Zm32,3h.34v-1h-.34Zm28.67,12.33v.33h1v-.33Zm-105.33,4.67H53.4v1h.34Zm-26.67,27.66v-.33h-1v.33Zm88-297.85c-1,1.88-1.7,3.24-2.42,4.61l.33.17-4.32,4.33h-2.24l-10.46,7c-1.34,2.45-.58,7-4.88,9.07-3.15-1.4-4.24-4.7-5.87-7.64-.14-2,.34-4.45-.6-6.12-1.12-2,.54-4.27-1.44-6-.58-.5-.42-2.35,0-3.38,2.06-5.46.39-11.09.95-16.6-1.48-2.55-.38-5.52-1.15-8s-.31-5.19-.94-7.61c-1.9-7.34-.38-14.75-.91-22.1-.16-2.27,1.45-4.2,1.07-6.6a16.71,16.71,0,0,1,0-6.46c1.43-5.84,1.6-11.75,2.09-17.68.46-5.55,1.34-11.1,1.86-16.68a17.18,17.18,0,0,1,1-3.09,15.43,15.43,0,0,1,1.07-3.55c.7-1.15-2.13-1.72-.27-2.79,1.41-6,3-12,4.85-18,.55-1.71.16-3.8-.13-5.67A15.1,15.1,0,0,0,91,636.91c-1.42-2.4-1.1-4.48.05-6.73.2-.4,0-1,0-1.6,2.07-1.42,3.06-4.26,6-4.65v-4.26l-1.94-2v-3l1.55-1.54.64,1.88h1.93L97.9,613.4l3.71-.38,2.23-2a10.35,10.35,0,0,0,2.19,1.09,11.47,11.47,0,0,0,2.49,0c.42,2.13,2.91,2.17,3.93,4h5.31c-.6,2.27,3,1.43,2.37,3.59,2,.46,2.1,2.31,3,3.67,4.54,7.14,7.84,15.11,13.94,21.28.21,1.34-.54,3,1,4l-1.88,1.87v5.09c-1.56,3.79-2.34,7.28-4.28,10s-5,4.54-7.72,6.85c-.63,3.32-1.27,6.69-1.94,10.26l.92,1.28c-1.87,3.62-3.5,7.18-3.12,11.34.1,1.06.38,2.22-.75,3.19-1.37,1.18.67,2.44,0,4.16-1.07,2.92-.79,6.32-1.3,9.48-.39,2.43-1.23,4.75-1,7.3a50.61,50.61,0,0,1,0,7.49,8.2,8.2,0,0,1-1,3.57,15.21,15.21,0,0,0-2,7.69c0,1.87.66,3.84-.84,5.67-.48.58.21,2.12.34,3.23.2,1.76,1.08,3.88.41,5.19-1.25,2.43-.74,4.8-.8,7.17a18,18,0,0,0,.78,6.64C114.93,769.05,114.77,772.42,115.06,775ZM93,751.15l-2.85,1.4v7.39h4c-.69-3.52.37-6.47,2.17-9.28A21.64,21.64,0,0,1,93.23,740h2.9c-.1-1.75-.19-3.3-.3-5.3l-2.44,1.41c-.22-.59-.43-1.16-.64-1.76l-3.81,2.55a17.39,17.39,0,0,0-.78,4.52c.1,1.62,1,3.19,1.49,4.85l1.29-.36c.15-1.32.28-2.49.47-4.16A17.16,17.16,0,0,1,93,751.15ZM98.22,765l.5,0,.77-1.81,1.47,1.1c-.19-1.64-.33-2.88-.52-4.46l-2.22,1.57Zm4.69-146.89v-3l-2.68.21v2.75Zm-39.56,600.2c1.05,1.23,2.19.39,3,.49a53.47,53.47,0,0,0,11.31.17,26.19,26.19,0,0,0,7.47-2.41c5.48-2.09,11-3.82,16.37-6.32,2.92-1.26,6.13-1.21,9.14-2,2.7-.74,5.24-1.88,8.07-2.32,1.68-.26,3.14-1.9,4.63-2.86l1.25,1.14,1.48-1.47c9.16-2.56,17.93-5.06,26-9.5,3,0,6,.17,9,0s5.68-.82,9-1.32l1.49-2.37,4.36-1.42c.77-2.19,1.52-4.32,2.3-6.56l-3.7-2.13-1.16.88c-.19-1.18-.33-2.09-.48-3-2.08-.22-4.11.4-5.76-1.06-1.32-1.17-3-1-4.56-1.09-.08,0-.15-.43-.23-.66l1.94-.68-1.81-1.57c-3.07.13-6.84-.32-10.06.25-8,2.83-15.86,5.94-23.55,9.5a49,49,0,0,1-7.66,3.18c-6,1.64-10.83,6-16.93,7.42-2.82,2.7-6.74,3-10,4.71-4.58,2.3-9.61,3.29-14.25,5.43a26.11,26.11,0,0,1-10.45,2.55,33.32,33.32,0,0,0-4.91.78L63,1205c-3,1.56-5.48,3.58-8.87,3.12V1214l5.19,4.14C60.84,1218.16,62.79,1217.62,63.35,1218.27ZM273.08,985.05a21.72,21.72,0,0,0-5.28,6.11h-8.32c-1.48,0-2.58,1.85-4.43.61-1.07-.72-2.64-.7-5.18-1.3l5-.44,1.45-2.57c-.86-.14-1.55-.44-1.73-.26a2.63,2.63,0,0,1-3.6.55c1.33-1.71,3.76-2.26,4.19-4.49l3.71-.21v-4.66l-2.83,1.15a25,25,0,0,1,1.08-2.71c-2.28-.77-7-1.34-8.58-.62-2.94,1.36-6.23.6-9.18,1.91-2.37,1-4.92,1.71-7.34,2.52V982l3.75.28.37,1.68,2.73.42c-.15.32-.23.73-.37.75-1.86.28-4-.77-5.66,1.88,2.36-.53,4.51.24,6.48-.89.68.3.47.77.68,1.71-1.72.44-2.88.26-4,1.81l2.36,1.15c-1.79.53-3.36,1.53-4.62,1.23-1.55-.37-2.55,1.55-4.3.32-1.13-.78-2.76,1.38-4.46.83,0-.34,0-.67-.49-.68,1.85-.65,3.13-1.19,4.62-1.8l-2.41-2a28.33,28.33,0,0,0-2.21,3.83c0-.32-.51-.32-1.54-.32l1.15-2.09-1.06-1.48,1.94-.9-1-1.17,1.67-.6c0-.74-.08-1.44-.14-2.51-2.19-1.67-4.62,1.24-7.17.68.21-2,1.73-1.66,3-2s2.41-1.42,3.85-2.34c-1.43-.76-2.55-1-3.49.23s-2.09,1.34-4,1l3.48-2.27c-.32-1.63-.64-3.3-1-5.17,3.14-.86,4.93-4.29,8.43-5.16l12.9-1.39c3.23-1.36,5.45-4.3,9.21-5.36,3.14-.88,5.76-3.64,8.15-5.25,4-.81,7.74.75,11.1-1.27,1.2.5,2.42,2.07,3.61,0C278.58,957,284,956,289,958c2.13.85,3.7,2.29,5.65,3.23.69.33,1.32.78,2.17,1.29.69,1.42,1.5,3.08,2.22,4.58a34.87,34.87,0,0,0-.93,9.92l-5,5c-2.7.61-6,1.55-9.41,2.09s-7,.71-10.54.94c0-.53-.08-1.14-.15-1.95l-4.83.25,1.23,2.39C270.63,985.47,271.83,985.21,273.08,985.05Zm-16.44-15.14,3,1.49c.87-1.36,1.61-2.55,2.53-4-.09-1.81-.2-3.9-.34-6,0-.07-.21-.12-.66-.34v3.06a11,11,0,0,0-4,6.11l-.19-.2-.82.7.32.31A.88.88,0,0,0,256.64,969.91Zm7.07,18,.36-.5h-7c0,.16,0,.33,0,.5Zm.19-6.6-.87.11.39,1.63.48-.08Zm-37.17-3.15h-.33v1h.33Zm1.34,6.33v.33h1v-.33Zm2.66.67h-.33v1h.33Zm-2.66,1.33v.33h1v-.33Zm2.66.67h-.33v1h.33Zm-3.74,113c-.38,2.86,1.33,5.33,1.06,8.07-.6,6.19.89,12.06,3.12,17.69,1,2.4,1.15,5.74,4.66,6.46,2,2.91,5.82,3.24,7.88,5.74h2.72a9.35,9.35,0,0,0,3.66-5.4c0-.2.39-.33.59-.49l2.74,2.74h6.3c.5-.51,1.1-.82,1.17-1.22a13.8,13.8,0,0,1,3.08-7.26c.9-1,1-3,1-4.49a9.21,9.21,0,0,0-1.08-3.51,27.21,27.21,0,0,0-1.85-3.23c-1-1.59-1.7-3.9-3.14-4.55-2.61-1.19-3.78-3.39-5.07-5.45a31.76,31.76,0,0,0-4.32-5.18c-3.22-3.32-7.33-5.62-9.95-9.73-1.82-2.86-5.2-2.94-8-1.17-.52.33-.67,1.25-.95,1.82l-1.69-1.11-1.86,1.65A68.52,68.52,0,0,1,227,1100.2Zm-102.84,2.63v8.9l5.33,10.19c2.94,1,5,5.39,8.64,2.18l8,4.69c2.08-.64,3.81-1.75,5.28-1.47s2.81-2,4.19-.16l5.79-1.53,6.9-8.21c-3-5-4-10.5-7.19-15.3a28.94,28.94,0,0,0-6.2-6.79c-2.67-2-6-.24-8.52-2-3.27,1.67-6.7.28-10.69,1l1.3-1.71-2.68-4.19C129.48,1093,127.56,1098.49,124.15,1102.83Zm14.69,54.58c-2.63-2.16-4.42-5.29-7.59-6.64-.82-2.37-1.79-4.48-4.13-5.62a2.25,2.25,0,0,1-1-.75c-1.68-3.29-4.74-5.11-7.51-7.31-5.32-4.23-11.63-5.14-17.73-6.11-3,2.4-4.37,5.15-3.78,8.28a68.88,68.88,0,0,0,5.86,9c3.5,5.06,6.23,10.68,9.11,16.15A30,30,0,0,0,126,1178.14c4.25-2.21,4.25-2.21,8.63-8.08h4.8c1.14-2.35,4-2.58,4.65-4.82C142.83,1162.29,141.4,1159.5,138.84,1157.41ZM86.07,461.16c-.72-3.27-3.28,2.29-4-1.05a.79.79,0,0,0,.14.15l.82-.7-.32-.31a5.49,5.49,0,0,0-.64.86,5.39,5.39,0,0,0-3.12,3.68c2.11.86,3.21-.81,4.94-1.53.08.79.18,1.65.27,2.42-2.18,1.31-2.75,2.43-2.09,3.93l-2,1.55c-3.5.24-3.5.24-4.27,3.76l-1.88.66v2.71l-1.32-1.05-1,.89c-.55-1.56-1.09-3.13-1.62-4.66l-1.86-.67c0-2.39,0-4.71,0-7,0-2.74.89-4.71,3.71-5.94A31.71,31.71,0,0,0,80.87,453c1.5-1.41,3.47-2.32,5.36-1.76l8.52-7c2.37.07,4.59,0,5.77-2.82.33-.76,1.77-1.05,2.93-1.18,2.35-2,4.59-4.1,7.1-5.86,1.2-.85,3-.86,4.34-1.52,1.64-.78,3.14-1.84,5.69-3.39L119,433.45c.36.42.77.9,1.48,1.71h3.59a31.26,31.26,0,0,1-14.9,9.06,28.7,28.7,0,0,0-6.24,3c-3.53,1.95-7,4-10.43,6.1-.63.39-1,1.24-1.43,1.88l-.83.32.83.68v2l-2.75,2h2.75c-.4.33-.77.91-1.2.95A37,37,0,0,1,86.07,461.16Zm2.33-4h.34v-1H88.4Zm91,357.44L178,817.24c.53,2.26,2.59,1.63,4.18,2.33-.26,1.06-.52,2.08-.82,3.26l2.21,4.48a48.43,48.43,0,0,1-7.43-2.69c-.06-.25-.18-.7-.3-1.19a5.48,5.48,0,0,1-4.76.35,28.22,28.22,0,0,0-4.8-.9c-.15-.39-.36-1-.57-1.54-3.28.85-3.28.85-6.87-.62,1.33-4.16,3.19-8.26,4.08-12.51.5-2.59,1.81-4.35,3.93-6.33a7.74,7.74,0,0,0,2.18,6.14c-.92,3,3.33,2.59,3.35,5Zm-2.46,3.74-.87,0c.09,1.22.17,2.44.25,3.67l.62,0Zm16.49-3-4.54,1.19c.33,1.38.59,2.49.93,4l-1.82-.93-1.61.75,2.23,2.66,6.16-1.09c2.56-1.24,2.23-4.11,3.4-6.07l-1.9-2ZM81.25,272.1c-.4-.56-.79-1-1.33-1.69l1.45-3,2.95,2.37L83,273.54l3,1.89c.37,1.93-.25,3.09-2.22,3.89l-9-7.55c2.48-1.66,4.23.53,6.41.33a.42.42,0,0,0-.29.15l.7.81.32-.31C81.7,272.52,81.43,272.28,81.25,272.1Zm261.94,319c.89,2.19,1,4.52,1.81,6.7a46.54,46.54,0,0,1,1.55,6.84c1.63-6.46-.69-12.26-.61-18.28l-3.55-2.77C342.68,586.79,342.41,589.16,343.19,591.1Zm.86,24.63c.27,1.22-.28,2.47.68,3.74.68.89.49,2.41.8,3.62.24,1,.64,1.91,1,2.86l.76-.14v-6.89l1.38,1.2c1.66-3.29-.88-5.73-1.62-8.5a.65.65,0,0,0-.35-.34c-.08,0-.23.07-.35.12-.2.58-.4,1.16-.69,2L342.87,612C343.3,613.38,343.77,614.53,344.05,615.73Zm-220.9-441.3a31.74,31.74,0,0,0,3.09-1c1.69-.7,3.28-2,5-2.2,3.9-.42,6.75-2.4,9.3-5.09a2.81,2.81,0,0,0,.36-.69l-1.27-1.19L123,173.61Zm103.4,1326.75c-.17-.17-.64,0-1.18,0-1.17,2.58,1.59,4.56.78,7,2.93-.29,5.18,2,8,.5C231.57,1506.16,229.08,1503.65,226.55,1501.18ZM272,241.94l1.32,2h6.26c-.83-1.16-1.21-2.28-1.92-2.56-1.57-.63-3.75-1.67-4.89-1.06-3.44,1.83-6.5.62-9.88-.34C265.73,243.15,268.37,243.77,272,241.94ZM138.55,428.45c-2.43,4-6.52,6.1-9.48,9.71,2.9.48,4.86-1.52,6.47-3.18,2.12-2.19,4.24-4.36,6.53-6.34v-2.48h-2C140.33,427.51,139,427.75,138.55,428.45ZM71.64,489.66c.88.24,1.42.37,2,.53s.58,1.31,1.36.6l.25-1.22,5.57-2.79,1.63-5.43C78.68,484.94,74,485.43,71.64,489.66Zm89.43,539.5-5,1c.46-1.23.93-2.45,1.52-4h1.48a7.6,7.6,0,0,0,.05,1l-.14-.15-.82.7.32.31a5.49,5.49,0,0,0,.64-.86c.71-.19,1.86.45,1.95-1a10.47,10.47,0,0,0,1-1.05.79.79,0,0,0,.14.15l.82-.7-.32-.31a5.49,5.49,0,0,0-.64.86,5.74,5.74,0,0,1-1,.05v-5.78l1.37-.25c.78,1.88,1.58,3.79,2.33,5.61Zm77.62-35.06a9.12,9.12,0,0,0-.8,2.57l9.53-4L241.71,991A41.66,41.66,0,0,0,238.69,994.1ZM106,274.59c.38-3.5-1.63-5.31-2.84-8.71-1.15,3.09-1.14,3-3.21,4.93Zm-6.9,766.57c-.86,0-1.67,1.43-2.6,0l-1.7,3.77a2.6,2.6,0,0,0-1.87,1c4.6.9,6.79-1.79,9.55-4.77C101,1041.16,100,1041.13,99.06,1041.16Zm18-877.32a7.33,7.33,0,0,0,3-3.61h-4.36l-1.66,1.36v6.28C115.27,166.18,115.88,164.5,117.06,163.84ZM134.48,521c1.88.58,2.94-.21,3.71-2l-1.05-1.42c.52-.75,2.13-1.49,0-2.58L133,518Zm55.4-17.13-2.6-2.6v5.93l2.42,2.88c.29-1,.61-2,1.07-3.57C190.56,505.88,190.12,504.57,189.88,503.87Zm64.37,477c-3.15-4.06-6.13.53-9.06-.86v3.54C248,980.6,251.23,981.44,254.25,980.9ZM326,255.61c.19-.15-.09-.87-.18-1.49l-4,.25V257l-3,.45,2,2C322.78,258.08,324.45,256.9,326,255.61Zm29,420.55c-1.91-1.92-4.42-3.62-2-7l-1.67.12-1.05,3.89,3.75,5C354.22,677.4,353.57,676.24,355.07,676.16Zm-207.48,302,1.72-1.71c-1.63-.71-3-1.07-4.24-2.26l-3,.23,2,2.77C145.32,977.21,146.71,976.75,147.59,978.13ZM327.21,630.32h-9v1.51C321.92,632.15,321.92,632.15,327.21,630.32Zm4.77-6.57-.32.31-.7-.81c.07-.07.13-.13.53-1.58.08-1.36-.17-1.35-.42-1.34a4.13,4.13,0,0,1-.49,2.83L329.36,622c-.62,1.83-.36,3.15,1.15,4l2.82-1.43c-.5-1.4-1-2.82-1.84-2.87C331.43,623.28,331.7,623.52,332,623.75ZM220.51,995.69l3.55.76c-.38.66-.69,1.18-1,1.71h2.18c-.32-1.52-.57-2.7-.78-3.67l.6-1.33A5.73,5.73,0,0,0,220.51,995.69ZM346,664l3.11,1.19v-2.77l2.64,3.65a4.51,4.51,0,0,0-.49-3.18c-.74-1.21-2.07-.55-3.15-.7ZM210.23,1003.54c-.2.32,0,.86,0,1.46h1.68l2.69-2.71C213.11,1002,211.37,1001.68,210.23,1003.54Zm66.08,307.34c-.31-.88-.47-1.31-.62-1.74l-7.43,1.35C270.85,1310.93,273.5,1311.48,276.31,1310.88Zm-12.25-.7a12.89,12.89,0,0,1,2,.84l1.12-2.61h-5.13v1.75A10.16,10.16,0,0,1,264.06,1310.18Zm8.06-419.45c-1.09-1.43-2.16-2.86-3.28-4.26-.07-.09-.45.06-.64.09v3.31l3.42,1.41ZM191.23,496.81,193.7,498l1.13-1.09-1.16-3.64Zm115,40.78v6.11C308.65,540.39,308.63,540.15,306.19,537.59ZM77.38,1047.16c-.26.82-.44,1.37-.62,1.95L75.07,1048v2.14c3.34-.05,3.58-.23,4-3ZM157.9,61V58.9l3.1-2.2-.4-.68-3.38,1.45V61ZM91.07,460.16c2.81-.69,2.81-.69,2.46-3.22l-2.46,1.22ZM217.3,998.33l2.63,1.91,3.89-1.91ZM190.49,491.06s.23-.11.34-.17c.36-.35.71-.71,1-1-.8-.86-1.6-1.73-2.42-2.6C188.54,488.91,189.17,490.09,190.49,491.06Zm-22.17,535.09c-.73.69-1.5,1.34-2.25,2,2.05-.36,4.09-.74,5-3h-2A7.35,7.35,0,0,1,168.32,1026.15Zm185.75-348V680l2,.14c-.28-1.45.84-2.95-1-4C354.92,676.91,355.56,678.07,354.07,678.16Zm-6-19c.53.72,1.07,1.45,1.53,2.09l1.22-.34c.08-.14.17-.27.49-.77l-2.24-2Zm-148.74-175v3.12l1.88-.38c-.26-1.06-.47-2-.69-2.88ZM98.91,1038.33H96.16v1.5C98.61,1040.05,98.61,1040.05,98.91,1038.33Zm29.34-516.87-1.71-.33c-.51,1-.92,1.8-1.43,2.78C127.08,524.51,127.77,523.37,128.25,521.46ZM112.74,1030a6.26,6.26,0,0,0,.36-1.79,10.55,10.55,0,0,1,.79-1.77l-1.93-1.93C112.19,1026.92,111.78,1028.52,112.74,1030ZM308,548.78a11.15,11.15,0,0,0,1-2.18,4.36,4.36,0,0,1,.75-2.35,9.6,9.6,0,0,1,.22,2.85c-.15.75-.9,1.37-1.38,2ZM161.07,1029.16v1c2,.09,3.83-.1,5-2Zm-39-864.76,4-1.61C124.56,162.19,122.86,161.81,122.1,164.4ZM322.63,625.26c.88.82,1.45,1.37,2.35,2.22v-4Zm-125,382.45c-.58.6-1.42,1.44-2.08,2.1C197.79,1009.6,197.8,1009.59,197.63,1007.71ZM243,989.63l-1.49-1.5-1.67,2,.69,1Zm-160.37,58.6-2.53,1.49,1.42,1.43C82.21,1050.26,83.93,1049.75,82.67,1048.23Zm225.57-446,1.85-.28-1.85-3.15Zm-152.17-187v-1.73c-2.28-.76-2,.63-2,1.73Zm-15,104.73-1.73-2.14v3ZM310.82,647.16v-4h-.5v4ZM84.57,464H88v-1.92ZM256.15,633l-.35-1.77L252.36,633Zm-17.08,870.18,1.9.87v-1.87h-1.9Zm-8.5-47.51,1.52-2.35-1.91-.13c-.06.8-.1,1.39-.15,2Zm-126.32-168.1,2-.75-.39-.55-1.87-.14C104.11,1286.82,104.24,1287.47,104.25,1287.55Zm9.82-1120.39c-1.93.46-.62,2-1,3C115,169.69,113.69,168.14,114.07,167.16ZM299,1197.55l.32.43H301v-1.08Zm-198.62-159.1,2.84-.6c-.12-.66-.21-1.1-.37-1.94Zm81.06-31.05-2.33-.19c.06.8.09,1.23.17,2.25Zm-48.31.87,2.95-.39-.06-.66-2.92.13ZM315.32,652.16v3h.5v-3Zm-235.26-181-2,.15c0,.7.09,1.24.13,1.9l2.36-1.52Zm53.51,38.54L132.05,512l1.91.13.14-2Zm27.5,516.5v-1c-.76.15-1.92-.5-2,1Zm36.25-542v2h.5v-2Zm41.75,1018c-.15-.76.49-1.92-1-2v2Zm-5.09-34,.38,2,.65-.09-.17-1.91Zm-35.16-976v-2h-.5v2Zm40,973-1.67.36.07.49h1.66Zm-30.36-449.94a8.7,8.7,0,0,0-1.4.43l2.47.71C208.82,1015.54,208.62,1015.17,208.47,1015.19Zm-19.65-517v-2h-.5v2ZM106,108.56a7.83,7.83,0,0,0-.44-1.4l-.7,2.47C105.69,108.91,106.06,108.7,106,108.56Zm88.78,395.6v-2h-.5v2ZM138.9,1341.31V1343l-.48.08-.39-1.63Zm-2.57-1.12,1.63-.39-.08-.47h-1.65Zm-7.28-902.12-2,.38.08.65,1.91-.17ZM284.33,117.19l1.63-.39-.07-.47h-1.66ZM140.1,514.92c-.13-.56-.25-1.12-.37-1.67l-.49.06V515Zm-35,796.24c-.76.15-1.92-.5-2,1C103.83,1312,105,1312.65,105.07,1311.16Zm203-773.41a9.13,9.13,0,0,0,.43,1.41c.18-.61.35-1.21.69-2.43C308.46,537.41,308.08,537.61,308.1,537.75Zm-182-375.51,1.95-.38-.09-.64-1.91.16ZM270.67,442.12a8.32,8.32,0,0,0,1.4-.43l-2.42-.69C270.33,441.77,270.52,442.14,270.67,442.12Zm3.4,1v-1h-2C272.15,443.65,273.31,443,274.07,443.16Zm7,764.91-1.95.38.08.65,1.91-.17Zm13.77-6.91v-2h-.5v2Zm-1.72-10.27-.39-1.63-.47.08V1191Zm-266-108.65,1.95-.38-.09-.64-1.91.16Zm283-451.17-1.95.38.08.65,1.91-.17Zm-187-456.91c-.76.15-1.92-.5-2,1C121.83,175,123,175.65,123.07,174.16Zm-22,281.08,2-.38-.09-.64-1.91.16Zm62.24,577,1.63-.39-.08-.47h-1.65Zm-3.28-1.12-2,.38.08.65,1.91-.17Zm190-363.91c-.15-.76.49-1.92-1-2C349.22,665.91,348.57,667.07,350.07,667.16Zm-133.76,334,1.67-.36-.07-.49h-1.66ZM344.1,680.92c-.13-.56-.25-1.12-.37-1.67l-.49.06V681Zm-86,251-.39-1.63-.47.08V932ZM356,690.17c.13.65.26,1.31.38,2L357,692l-.17-1.91ZM126.07,305.91h2v-.5h-2Zm80,540.16-2,.38.08.65,1.91-.17Zm-58.58-65.88a8.7,8.7,0,0,0-1.4.43l2.42.69C147.81,780.55,147.61,780.17,147.47,780.19Zm104.62-347,1.95-.38-.09-.64-1.91.16ZM251,723.17l.38,2L252,725l-.17-1.91ZM94.4,460.16v1h.34v-1ZM98,252.25l.7.81.32-.31-.82-.7Zm153,471-.82-.7.32-.31.69.82Zm33-472,.7.81.32-.31-.82-.7Zm-4.8-14,.82-.7-.32-.31-.7.82Zm-19-.19-.69-.82-.32.31.82.7Zm-57-3.81.82-.7-.32-.31-.7.82Zm-29.09,563.9.33.82c.22-.27.44-.55.67-.82Zm35-565.67h-1v.33h1Zm-6.91-.23.82-.7-.32-.31-.7.82Zm8.24-2.1v1h.33v-1ZM97.07,457.49h-1v.33h1ZM215,220.05l-.82.7.32.31.69-.81ZM270.4,928.16v1h.33v-1Zm84.33-245v-1h-.33v1Zm-129,268v-1h-.33v1ZM98.4,456.16v1h.34v-1ZM217.07,962.49h-1v.33h1ZM347,676.26l-.82-.7.32-.31.69.82ZM86,461.05l-.82.7.32.31.69-.81Zm58,516-.82.7.32.31.69-.81ZM238.4,669.16v1h.33v-1ZM257,201.05l-.82.7.32.31.69-.81Zm-3,.2.7.81.32-.31-.82-.7Zm3.94-.42-.83-.67v1Zm-1.66-1.35.83.68v-1Zm.92-.22.82-.7-.32-.31-.7.82Zm34.91-7.1.33.82.67-.82Zm-35.91,1.1.82-.7-.32-.31-.7.82Zm36.91-1.1.83-.33-.83-.67ZM350,667.25l.7.81.32-.31-.82-.7Zm-179.8,338,.82-.7-.32-.31-.7.82ZM101,455.05l-.82.7.32.31.69-.81Zm-9.91,1.11.83-.33-.83-.67ZM341,663.25l.7.81.32-.31-.82-.7ZM177.07,1009.82h1v-.33h-1Zm98-824.66.33.82.67-.82Zm66.1,477.91-.69-.82-.32.31.82.7ZM94.74,475.16v-1H94.4v1Zm70,544v-1h-.34v1Zm37.42.1.82-.7-.32-.31-.7.82Zm146-357.19-.69-.82-.32.31.82.7ZM169.74,1021.16v-1h-.34v1Zm-24,1v-1h-.34v1Zm23.43,2.91-.69-.82-.32.31.82.7Zm105.9-840.91h-1c.33.33.67.66,1,1ZM347,659.05l-.82.7.32.31.69-.81Zm-191,371-.82.7.32.31.69-.81Zm-4.91,3.77h1v-.33h-1Zm21.91,1.23-.82.7.32.31.69-.81ZM348.07,658.16h-1v1h1Zm-.9-.1-.69-.81-.32.31.82.7Zm-102.1,385.43h-1v.33h1ZM142.16,426.26l.82-.7-.32-.31-.7.82Zm99.8,619,.7.81.32-.31-.82-.7Zm-162.8,2,.82-.7-.32-.31-.7.82ZM75,1050.05l-.82.7.32.31.69-.81Zm196-876-.82.7.32.31.69-.81Zm.18.21.82-.7-.32-.31-.7.82ZM93.74,455.16v-1H93.4v1ZM31,1075.05l-.82.7.32.31.69-.81Zm0,5-.82.7.32.31.69-.81ZM184.16,398.26l.82-.7-.32-.31-.7.82Zm109,805,.82-.7-.32-.31-.7.81Zm-.92.22.83.68v-1Zm.92.57.82.7-.32.31-.7-.81Zm-13.09,24.11.83-.33-.83-.67Zm-1,0v1c.33-.34.67-.67,1-1Zm-1,1v1c.33-.34.67-.67,1-1Zm65.1-617.09-.69-.82-.32.31.82.7Zm-64,620.19.82-.7-.32-.31-.7.82Zm-108.42,4.9v-1h-.34v1Zm9-833v-1h-.33v1Zm93.67,833v1h.33v-1ZM80.9,470.83l-.83-.67v1Zm90.27-65.76-.69-.82-.32.31.82.7Zm100-233.81.82-.7-.32-.31-.7.82Zm2.91-2.77h-1v.33h1ZM306.4,600.16v1h.33v-1Zm-49-192v1h.33v-1ZM328,569.25l.7.81.32-.31-.82-.7ZM149.74,1267.16v-1h-.34v1Zm-1.67.33h-1v.33h1Zm-4.11.76.7.81.32-.31-.82-.7ZM288.07,164.16l-.83.32.83.68Zm1,0-.33-.83-.67.83Zm-156.67,1111v1h.34v-1ZM307.17,566.07l-.69-.82-.32.31.82.7ZM144.4,429.16v1h.34v-1Zm99.76,858.1.82-.7-.32-.31-.7.82Zm4,1,.82-.7-.32-.31-.7.82Zm-61,1,.82-.7-.32-.31-.7.82ZM316.4,539.16v1h.33v-1Zm-124-11v1h.33v-1Zm-2,0v1h.33v-1Zm-37.66-114v-1h-.34v1ZM130,160.05l-.82.7.32.31.69-.81Zm119.19,1148-.69-.82-.32.31.82.7Zm-119-1147.81.82-.7-.32-.31-.7.82ZM91.74,1309.16v1H91.4v-1Zm-11-835v-1H80.4v1ZM147,508.05l-.82.7.32.31.69-.81ZM133.4,1337.16v1h.34v-1Zm10.67,1,.33.82c.22-.27.44-.55.67-.82Zm-8.91-828.9.82-.7-.32-.31-.7.82Zm55.8-2,.7.81.32-.31-.82-.7Zm-40-.2-.82.7.32.31.69-.81Zm-10.82-73.79.82-.7-.32-.31-.7.82Zm6.91,69.23h-1v.33h1Zm-2,0h-1v.33h1ZM106.16,107.26l.82-.7-.32-.31-.7.82Zm135.91,1340.9.33.82c.22-.27.44-.55.67-.82Zm-76.67-1033v1h.34v-1ZM230,1455.05l-.82.7.32.31.69-.81Zm1.42,1.11v1h.33v-1Zm-3.24,2.1.82-.7-.32-.31-.7.81Zm-89.09-967.1-.83.32.83.68Zm66.1,980.91-.69-.82-.32.31.82.7ZM195.4,486.16v1h.33v-1Zm13.33,1002v-1h-.33v1Zm29.44,11.91-.69-.82-.32.31.82.7ZM87.07,66.49h-1v.33h1ZM140,433.05l-.82.7.32.31.69-.81ZM209,187.29c.06-2.64-.32-4.34,2.31-5.11Zm-.09,1.83v-2.81C208,187.46,208,187.46,209,189.12Zm3.08-8.71.39,1.64.48-.08v-1.66Zm3.7,7.75v-1h-.33v1Zm31.43-2.9.82-.7-.32-.31-.7.82Zm37.91-11.1h1v-1h-1Zm1-1h1v-1h-1ZM123.59,1309.77l2.5-2.09-1.48-1.48-1.6,1.23Zm3.31,2c-1,1.26-2.65,1.65-1.4,3.32l1.59-1.2C127.06,1313.52,127,1312.91,126.9,1311.8Zm1.5.36v1h.34v-1Zm-1.44,2.09.7.81.32-.31-.82-.7Zm19.13-71.58a5.82,5.82,0,0,0,.81.38v-3.81h-1.5C144.77,1240.62,144.86,1241.77,146.09,1242.67Zm60,31.82h-1v.33h1Zm109.68-544.2c-.57.48-.52,1-.72,1.36a9.14,9.14,0,0,1-1.37,1.5l2.48-.12C316,732,315.87,731.16,315.75,730.29ZM237,729.17c.12,1,.25,2,.38,3l.67-.06c0-1-.09-1.95-.14-2.92Zm.2,0-.39-2-.64.09.16,1.91ZM250,354.05l-.82.7.32.31.69-.81Zm-104.81-22-.69-.82-.32.31.82.7Zm2.42,71.69-2.11-1.32C145.16,404,145.16,404,147.59,403.76ZM157,936.17c.13.65.26,1.31.38,2L158,938l-.17-1.91Zm41.7,114.16c.53.51,1.22,1.16,2,1.88a28.92,28.92,0,0,1,1.86-4.48l-7.25,2.68v4.46Zm-4.61-1.51h1v-.33h-1Zm-153,9.34a2.46,2.46,0,0,0-3,2h2c.33-.34.67-.67,1-1Zm4.1-5.67.07.67h1.83v-1Zm-1.43,1.67v-1H43.4v1Zm-1.67,3c-.34.33-.67.66-1,1h1Zm-35,17,2.44-1H6.93C7.09,1074.11,7.17,1074.55,7.11,1074.2ZM93,751.25l.7.81.32-.31-.82-.7Z"/></g></g></svg>