<svg xmlns="http://www.w3.org/2000/svg" viewBox="0 0 230.35 230.31"><defs><style>.cls-1{fill:#000;}</style></defs><path class="cls-1" d="M115.16,20.76c30.75,0,34.39.12,46.53.67,11.23.51,17.33,2.39,21.39,4A38.12,38.12,0,0,1,205,47.3c1.57,4,3.45,10.15,4,21.38.55,12.14.67,15.78.67,46.52s-.12,34.39-.67,46.53c-.51,11.23-2.39,17.32-4,21.38A38.16,38.16,0,0,1,183.09,205c-4.06,1.58-10.15,3.46-21.38,4-12.14.55-15.78.67-46.53.67s-34.39-.12-46.53-.67c-11.23-.51-17.33-2.39-21.39-4a38.12,38.12,0,0,1-21.87-21.87c-1.57-4.05-3.45-10.15-4-21.38-.55-12.14-.67-15.78-.67-46.52s.12-34.39.67-46.53c.51-11.23,2.39-17.32,4-21.38A38.12,38.12,0,0,1,47.26,25.41c4.06-1.58,10.16-3.45,21.39-4,12.14-.55,15.78-.67,46.53-.67m0-20.74C83.91,0,80,.13,67.7.69s-20.64,2.52-28,5.37A58.75,58.75,0,0,0,6.07,39.69C3.2,47,1.25,55.39.7,67.69S0,83.89,0,115.17s.13,35.19.7,47.47,2.5,20.62,5.35,28a58.89,58.89,0,0,0,33.67,33.67c7.32,2.85,15.7,4.79,28,5.36s16.21.69,47.48.69,35.2-.14,47.48-.69,20.62-2.51,28-5.36a58.9,58.9,0,0,0,33.68-33.67c2.84-7.31,4.79-15.7,5.35-28s.69-16.2.69-47.47-.13-35.2-.69-47.48-2.51-20.62-5.35-27.95A58.81,58.81,0,0,0,190.63,6.09c-7.33-2.87-15.7-4.81-28-5.37S146.42,0,115.15,0Z"/><path class="cls-1" d="M115.16,56a59.13,59.13,0,1,0,59.13,59.13h0A59.1,59.1,0,0,0,115.2,56Zm0,97.5a38.39,38.39,0,1,1,38.4-38.39h0a38.39,38.39,0,0,1-38.39,38.39Z"/><circle class="cls-1" cx="176.62" cy="53.69" r="13.82"/></svg>