<svg xmlns="http://www.w3.org/2000/svg" viewBox="0 0 234.9 191"><defs><style>.cls-1{fill:#000;}</style></defs><path class="cls-1" d="M73.7,191c88.7,0,137.2-73.5,137.2-137.2,0-2.1,0-4.2-.1-6.2a98.75,98.75,0,0,0,24.1-25,98,98,0,0,1-27.7,7.6A48.24,48.24,0,0,0,228.4,3.5a97.79,97.79,0,0,1-30.6,11.7,48.25,48.25,0,0,0-83.4,33,44.37,44.37,0,0,0,1.3,11A136.82,136.82,0,0,1,16.3,8.8a48.2,48.2,0,0,0,15,64.3,47.39,47.39,0,0,1-21.8-6v.6A48.28,48.28,0,0,0,48.2,115a48.22,48.22,0,0,1-12.7,1.7,46.34,46.34,0,0,1-9.1-.9,48.16,48.16,0,0,0,45,33.5,97,97,0,0,1-59.9,20.6A88.43,88.43,0,0,1,0,169.2,134.45,134.45,0,0,0,73.7,191"/></svg>